<?xml version="1.0" encoding="UTF-8" standalone="no"?>
<!DOCTYPE svg PUBLIC "-//W3C//DTD SVG 1.1//EN"
 "http://www.w3.org/Graphics/SVG/1.1/DTD/svg11.dtd">
<!-- Generated by graphviz version 14.1.1 (20251213.1925)
 -->
<!-- Title: AST Pages: 1 -->
<svg width="2619pt" height="548pt"
 viewBox="0.00 0.00 2619.00 548.00" xmlns="http://www.w3.org/2000/svg" xmlns:xlink="http://www.w3.org/1999/xlink">
<g id="graph0" class="graph" transform="scale(1 1) rotate(0) translate(4 544)">
<title>AST</title>
<polygon fill="white" stroke="none" points="-4,4 -4,-544 2614.5,-544 2614.5,4 -4,4"/>
<!-- n0 -->
<g id="node1" class="node">
<title>n0</title>
<path fill="none" stroke="black" d="M1161.25,-540C1161.25,-540 1116.75,-540 1116.75,-540 1110.75,-540 1104.75,-534 1104.75,-528 1104.75,-528 1104.75,-516 1104.75,-516 1104.75,-510 1110.75,-504 1116.75,-504 1116.75,-504 1161.25,-504 1161.25,-504 1167.25,-504 1173.25,-510 1173.25,-516 1173.25,-516 1173.25,-528 1173.25,-528 1173.25,-534 1167.25,-540 1161.25,-540"/>
<text xml:space="preserve" text-anchor="middle" x="1139" y="-515.83" font-family="Consolas" font-size="14.00">Program</text>
</g>
<!-- n1 -->
<g id="node2" class="node">
<title>n1</title>
<path fill="none" stroke="black" d="M139.5,-468C139.5,-468 72.5,-468 72.5,-468 66.5,-468 60.5,-462 60.5,-456 60.5,-456 60.5,-444 60.5,-444 60.5,-438 66.5,-432 72.5,-432 72.5,-432 139.5,-432 139.5,-432 145.5,-432 151.5,-438 151.5,-444 151.5,-444 151.5,-456 151.5,-456 151.5,-462 145.5,-468 139.5,-468"/>
<text xml:space="preserve" text-anchor="middle" x="106" y="-443.82" font-family="Consolas" font-size="14.00">Assign (=)</text>
</g>
<!-- n0&#45;&gt;n1 -->
<g id="edge3" class="edge">
<title>n0&#45;&gt;n1</title>
<path fill="none" stroke="black" d="M1104.6,-519.82C984.92,-515.54 575.62,-499.39 239,-468 214,-465.67 186.46,-462.28 162.96,-459.15"/>
<polygon fill="black" stroke="black" points="163.65,-455.71 153.27,-457.84 162.71,-462.65 163.65,-455.71"/>
</g>
<!-- n4 -->
<g id="node5" class="node">
<title>n4</title>
<path fill="none" stroke="black" d="M327.5,-468C327.5,-468 260.5,-468 260.5,-468 254.5,-468 248.5,-462 248.5,-456 248.5,-456 248.5,-444 248.5,-444 248.5,-438 254.5,-432 260.5,-432 260.5,-432 327.5,-432 327.5,-432 333.5,-432 339.5,-438 339.5,-444 339.5,-444 339.5,-456 339.5,-456 339.5,-462 333.5,-468 327.5,-468"/>
<text xml:space="preserve" text-anchor="middle" x="294" y="-443.82" font-family="Consolas" font-size="14.00">Assign (=)</text>
</g>
<!-- n0&#45;&gt;n4 -->
<g id="edge6" class="edge">
<title>n0&#45;&gt;n4</title>
<path fill="none" stroke="black" d="M1104.28,-518.35C1006.1,-510.84 718.08,-488.58 479,-468 436.23,-464.32 387.93,-459.87 351.41,-456.45"/>
<polygon fill="black" stroke="black" points="351.77,-452.97 341.49,-455.52 351.12,-459.94 351.77,-452.97"/>
</g>
<!-- n7 -->
<g id="node8" class="node">
<title>n7</title>
<path fill="none" stroke="black" d="M567.5,-468C567.5,-468 500.5,-468 500.5,-468 494.5,-468 488.5,-462 488.5,-456 488.5,-456 488.5,-444 488.5,-444 488.5,-438 494.5,-432 500.5,-432 500.5,-432 567.5,-432 567.5,-432 573.5,-432 579.5,-438 579.5,-444 579.5,-444 579.5,-456 579.5,-456 579.5,-462 573.5,-468 567.5,-468"/>
<text xml:space="preserve" text-anchor="middle" x="534" y="-443.82" font-family="Consolas" font-size="14.00">Assign (=)</text>
</g>
<!-- n0&#45;&gt;n7 -->
<g id="edge9" class="edge">
<title>n0&#45;&gt;n7</title>
<path fill="none" stroke="black" d="M1104.3,-516.99C1004.23,-505.41 714.38,-471.87 590.85,-457.58"/>
<polygon fill="black" stroke="black" points="591.61,-454.14 581.28,-456.47 590.81,-461.1 591.61,-454.14"/>
</g>
<!-- n10 -->
<g id="node11" class="node">
<title>n10</title>
<path fill="none" stroke="black" d="M789.5,-468C789.5,-468 722.5,-468 722.5,-468 716.5,-468 710.5,-462 710.5,-456 710.5,-456 710.5,-444 710.5,-444 710.5,-438 716.5,-432 722.5,-432 722.5,-432 789.5,-432 789.5,-432 795.5,-432 801.5,-438 801.5,-444 801.5,-444 801.5,-456 801.5,-456 801.5,-462 795.5,-468 789.5,-468"/>
<text xml:space="preserve" text-anchor="middle" x="756" y="-443.82" font-family="Consolas" font-size="14.00">Assign (=)</text>
</g>
<!-- n0&#45;&gt;n10 -->
<g id="edge12" class="edge">
<title>n0&#45;&gt;n10</title>
<path fill="none" stroke="black" d="M1104.34,-514.66C1038.12,-502.56 893.1,-476.06 812.62,-461.35"/>
<polygon fill="black" stroke="black" points="813.67,-457.98 803.2,-459.63 812.41,-464.87 813.67,-457.98"/>
</g>
<!-- n13 -->
<g id="node14" class="node">
<title>n13</title>
<path fill="none" stroke="black" d="M974.5,-468C974.5,-468 907.5,-468 907.5,-468 901.5,-468 895.5,-462 895.5,-456 895.5,-456 895.5,-444 895.5,-444 895.5,-438 901.5,-432 907.5,-432 907.5,-432 974.5,-432 974.5,-432 980.5,-432 986.5,-438 986.5,-444 986.5,-444 986.5,-456 986.5,-456 986.5,-462 980.5,-468 974.5,-468"/>
<text xml:space="preserve" text-anchor="middle" x="941" y="-443.82" font-family="Consolas" font-size="14.00">Assign (=)</text>
</g>
<!-- n0&#45;&gt;n13 -->
<g id="edge18" class="edge">
<title>n0&#45;&gt;n13</title>
<path fill="none" stroke="black" d="M1104.51,-508.81C1074.99,-498.37 1031.92,-483.14 997.39,-470.93"/>
<polygon fill="black" stroke="black" points="998.99,-467.79 988.4,-467.76 996.66,-474.39 998.99,-467.79"/>
</g>
<!-- n19 -->
<g id="node20" class="node">
<title>n19</title>
<path fill="none" stroke="black" d="M1116.5,-468C1116.5,-468 1049.5,-468 1049.5,-468 1043.5,-468 1037.5,-462 1037.5,-456 1037.5,-456 1037.5,-444 1037.5,-444 1037.5,-438 1043.5,-432 1049.5,-432 1049.5,-432 1116.5,-432 1116.5,-432 1122.5,-432 1128.5,-438 1128.5,-444 1128.5,-444 1128.5,-456 1128.5,-456 1128.5,-462 1122.5,-468 1116.5,-468"/>
<text xml:space="preserve" text-anchor="middle" x="1083" y="-443.82" font-family="Consolas" font-size="14.00">Assign (=)</text>
</g>
<!-- n0&#45;&gt;n19 -->
<g id="edge21" class="edge">
<title>n0&#45;&gt;n19</title>
<path fill="none" stroke="black" d="M1125.16,-503.7C1118.71,-495.64 1110.92,-485.89 1103.79,-476.98"/>
<polygon fill="black" stroke="black" points="1106.61,-474.91 1097.63,-469.29 1101.14,-479.28 1106.61,-474.91"/>
</g>
<!-- n22 -->
<g id="node23" class="node">
<title>n22</title>
<path fill="none" stroke="black" d="M1233.25,-468C1233.25,-468 1158.75,-468 1158.75,-468 1152.75,-468 1146.75,-462 1146.75,-456 1146.75,-456 1146.75,-444 1146.75,-444 1146.75,-438 1152.75,-432 1158.75,-432 1158.75,-432 1233.25,-432 1233.25,-432 1239.25,-432 1245.25,-438 1245.25,-444 1245.25,-444 1245.25,-456 1245.25,-456 1245.25,-462 1239.25,-468 1233.25,-468"/>
<text xml:space="preserve" text-anchor="middle" x="1196" y="-443.82" font-family="Consolas" font-size="14.00">Assign (+=)</text>
</g>
<!-- n0&#45;&gt;n22 -->
<g id="edge24" class="edge">
<title>n0&#45;&gt;n22</title>
<path fill="none" stroke="black" d="M1153.09,-503.7C1159.65,-495.64 1167.59,-485.89 1174.84,-476.98"/>
<polygon fill="black" stroke="black" points="1177.52,-479.24 1181.12,-469.28 1172.09,-474.82 1177.52,-479.24"/>
</g>
<!-- n25 -->
<g id="node26" class="node">
<title>n25</title>
<path fill="none" stroke="black" d="M1368.25,-468C1368.25,-468 1293.75,-468 1293.75,-468 1287.75,-468 1281.75,-462 1281.75,-456 1281.75,-456 1281.75,-444 1281.75,-444 1281.75,-438 1287.75,-432 1293.75,-432 1293.75,-432 1368.25,-432 1368.25,-432 1374.25,-432 1380.25,-438 1380.25,-444 1380.25,-444 1380.25,-456 1380.25,-456 1380.25,-462 1374.25,-468 1368.25,-468"/>
<text xml:space="preserve" text-anchor="middle" x="1331" y="-443.82" font-family="Consolas" font-size="14.00">Assign (&#45;=)</text>
</g>
<!-- n0&#45;&gt;n25 -->
<g id="edge27" class="edge">
<title>n0&#45;&gt;n25</title>
<path fill="none" stroke="black" d="M1173.33,-508.49C1200.85,-498.45 1240.1,-484.14 1272.55,-472.31"/>
<polygon fill="black" stroke="black" points="1273.65,-475.63 1281.85,-468.92 1271.25,-469.06 1273.65,-475.63"/>
</g>
<!-- n28 -->
<g id="node29" class="node">
<title>n28</title>
<path fill="none" stroke="black" d="M1478,-468C1478,-468 1448,-468 1448,-468 1442,-468 1436,-462 1436,-456 1436,-456 1436,-444 1436,-444 1436,-438 1442,-432 1448,-432 1448,-432 1478,-432 1478,-432 1484,-432 1490,-438 1490,-444 1490,-444 1490,-456 1490,-456 1490,-462 1484,-468 1478,-468"/>
<text xml:space="preserve" text-anchor="middle" x="1463" y="-443.82" font-family="Consolas" font-size="14.00">Print</text>
</g>
<!-- n0&#45;&gt;n28 -->
<g id="edge31" class="edge">
<title>n0&#45;&gt;n28</title>
<path fill="none" stroke="black" d="M1173.41,-513.9C1221.65,-503.89 1312.1,-484.98 1389,-468 1400.58,-465.44 1413.17,-462.58 1424.62,-459.95"/>
<polygon fill="black" stroke="black" points="1425.18,-463.41 1434.14,-457.75 1423.61,-456.59 1425.18,-463.41"/>
</g>
<!-- n32 -->
<g id="node33" class="node">
<title>n32</title>
<path fill="none" stroke="black" d="M1681,-468C1681,-468 1651,-468 1651,-468 1645,-468 1639,-462 1639,-456 1639,-456 1639,-444 1639,-444 1639,-438 1645,-432 1651,-432 1651,-432 1681,-432 1681,-432 1687,-432 1693,-438 1693,-444 1693,-444 1693,-456 1693,-456 1693,-462 1687,-468 1681,-468"/>
<text xml:space="preserve" text-anchor="middle" x="1666" y="-443.82" font-family="Consolas" font-size="14.00">For</text>
</g>
<!-- n0&#45;&gt;n32 -->
<g id="edge37" class="edge">
<title>n0&#45;&gt;n32</title>
<path fill="none" stroke="black" d="M1173.58,-516.41C1267.76,-503.9 1528.37,-469.28 1627.26,-456.15"/>
<polygon fill="black" stroke="black" points="1627.55,-459.64 1637,-454.85 1626.63,-452.7 1627.55,-459.64"/>
</g>
<!-- n38 -->
<g id="node39" class="node">
<title>n38</title>
<path fill="none" stroke="black" d="M1959,-468C1959,-468 1929,-468 1929,-468 1923,-468 1917,-462 1917,-456 1917,-456 1917,-444 1917,-444 1917,-438 1923,-432 1929,-432 1929,-432 1959,-432 1959,-432 1965,-432 1971,-438 1971,-444 1971,-444 1971,-456 1971,-456 1971,-462 1965,-468 1959,-468"/>
<text xml:space="preserve" text-anchor="middle" x="1944" y="-443.82" font-family="Consolas" font-size="14.00">For</text>
</g>
<!-- n0&#45;&gt;n38 -->
<g id="edge48" class="edge">
<title>n0&#45;&gt;n38</title>
<path fill="none" stroke="black" d="M1173.59,-517.99C1304.45,-506.61 1768.7,-466.24 1905.69,-454.33"/>
<polygon fill="black" stroke="black" points="1905.65,-457.85 1915.3,-453.5 1905.04,-450.87 1905.65,-457.85"/>
</g>
<!-- n49 -->
<g id="node50" class="node">
<title>n49</title>
<path fill="none" stroke="black" d="M2241,-468C2241,-468 2211,-468 2211,-468 2205,-468 2199,-462 2199,-456 2199,-456 2199,-444 2199,-444 2199,-438 2205,-432 2211,-432 2211,-432 2241,-432 2241,-432 2247,-432 2253,-438 2253,-444 2253,-444 2253,-456 2253,-456 2253,-462 2247,-468 2241,-468"/>
<text xml:space="preserve" text-anchor="middle" x="2226" y="-443.82" font-family="Consolas" font-size="14.00">For</text>
</g>
<!-- n0&#45;&gt;n49 -->
<g id="edge69" class="edge">
<title>n0&#45;&gt;n49</title>
<path fill="none" stroke="black" d="M1173.45,-518.9C1288.05,-511.92 1666.88,-488.69 1980,-468 2053.4,-463.15 2139.1,-457.15 2187.51,-453.73"/>
<polygon fill="black" stroke="black" points="2187.46,-457.24 2197.19,-453.05 2186.97,-450.26 2187.46,-457.24"/>
</g>
<!-- n2 -->
<g id="node3" class="node">
<title>n2</title>
<path fill="none" stroke="black" d="M42,-396C42,-396 12,-396 12,-396 6,-396 0,-390 0,-384 0,-384 0,-372 0,-372 0,-366 6,-360 12,-360 12,-360 42,-360 42,-360 48,-360 54,-366 54,-372 54,-372 54,-384 54,-384 54,-390 48,-396 42,-396"/>
<text xml:space="preserve" text-anchor="middle" x="27" y="-371.82" font-family="Consolas" font-size="14.00">Id: x</text>
</g>
<!-- n1&#45;&gt;n2 -->
<g id="edge1" class="edge">
<title>n1&#45;&gt;n2</title>
<path fill="none" stroke="black" d="M86.47,-431.7C76.98,-423.28 65.39,-413.02 54.98,-403.79"/>
<polygon fill="black" stroke="black" points="57.52,-401.36 47.71,-397.35 52.87,-406.6 57.52,-401.36"/>
</g>
<!-- n3 -->
<g id="node4" class="node">
<title>n3</title>
<path fill="none" stroke="black" d="M128.25,-396C128.25,-396 83.75,-396 83.75,-396 77.75,-396 71.75,-390 71.75,-384 71.75,-384 71.75,-372 71.75,-372 71.75,-366 77.75,-360 83.75,-360 83.75,-360 128.25,-360 128.25,-360 134.25,-360 140.25,-366 140.25,-372 140.25,-372 140.25,-384 140.25,-384 140.25,-390 134.25,-396 128.25,-396"/>
<text xml:space="preserve" text-anchor="middle" x="106" y="-371.82" font-family="Consolas" font-size="14.00">Int: 10</text>
</g>
<!-- n1&#45;&gt;n3 -->
<g id="edge2" class="edge">
<title>n1&#45;&gt;n3</title>
<path fill="none" stroke="black" d="M106,-431.7C106,-424.41 106,-415.73 106,-407.54"/>
<polygon fill="black" stroke="black" points="109.5,-407.62 106,-397.62 102.5,-407.62 109.5,-407.62"/>
</g>
<!-- n5 -->
<g id="node6" class="node">
<title>n5</title>
<path fill="none" stroke="black" d="M200,-396C200,-396 170,-396 170,-396 164,-396 158,-390 158,-384 158,-384 158,-372 158,-372 158,-366 164,-360 170,-360 170,-360 200,-360 200,-360 206,-360 212,-366 212,-372 212,-372 212,-384 212,-384 212,-390 206,-396 200,-396"/>
<text xml:space="preserve" text-anchor="middle" x="185" y="-371.82" font-family="Consolas" font-size="14.00">Id: y</text>
</g>
<!-- n4&#45;&gt;n5 -->
<g id="edge4" class="edge">
<title>n4&#45;&gt;n5</title>
<path fill="none" stroke="black" d="M266.78,-431.52C253.02,-422.68 236.13,-411.84 221.29,-402.3"/>
<polygon fill="black" stroke="black" points="223.46,-399.54 213.15,-397.08 219.67,-405.43 223.46,-399.54"/>
</g>
<!-- n6 -->
<g id="node7" class="node">
<title>n6</title>
<path fill="none" stroke="black" d="M346.25,-396C346.25,-396 241.75,-396 241.75,-396 235.75,-396 229.75,-390 229.75,-384 229.75,-384 229.75,-372 229.75,-372 229.75,-366 235.75,-360 241.75,-360 241.75,-360 346.25,-360 346.25,-360 352.25,-360 358.25,-366 358.25,-372 358.25,-372 358.25,-384 358.25,-384 358.25,-390 352.25,-396 346.25,-396"/>
<text xml:space="preserve" text-anchor="middle" x="294" y="-371.82" font-family="Consolas" font-size="14.00">Float: 2.500000</text>
</g>
<!-- n4&#45;&gt;n6 -->
<g id="edge5" class="edge">
<title>n4&#45;&gt;n6</title>
<path fill="none" stroke="black" d="M294,-431.7C294,-424.41 294,-415.73 294,-407.54"/>
<polygon fill="black" stroke="black" points="297.5,-407.62 294,-397.62 290.5,-407.62 297.5,-407.62"/>
</g>
<!-- n8 -->
<g id="node9" class="node">
<title>n8</title>
<path fill="none" stroke="black" d="M440,-396C440,-396 388,-396 388,-396 382,-396 376,-390 376,-384 376,-384 376,-372 376,-372 376,-366 382,-360 388,-360 388,-360 440,-360 440,-360 446,-360 452,-366 452,-372 452,-372 452,-384 452,-384 452,-390 446,-396 440,-396"/>
<text xml:space="preserve" text-anchor="middle" x="414" y="-371.82" font-family="Consolas" font-size="14.00">Id: name</text>
</g>
<!-- n7&#45;&gt;n8 -->
<g id="edge7" class="edge">
<title>n7&#45;&gt;n8</title>
<path fill="none" stroke="black" d="M504.03,-431.52C488.74,-422.6 469.94,-411.63 453.48,-402.03"/>
<polygon fill="black" stroke="black" points="455.3,-399.04 444.9,-397.02 451.77,-405.09 455.3,-399.04"/>
</g>
<!-- n9 -->
<g id="node10" class="node">
<title>n9</title>
<path fill="none" stroke="black" d="M586.25,-396C586.25,-396 481.75,-396 481.75,-396 475.75,-396 469.75,-390 469.75,-384 469.75,-384 469.75,-372 469.75,-372 469.75,-366 475.75,-360 481.75,-360 481.75,-360 586.25,-360 586.25,-360 592.25,-360 598.25,-366 598.25,-372 598.25,-372 598.25,-384 598.25,-384 598.25,-390 592.25,-396 586.25,-396"/>
<text xml:space="preserve" text-anchor="middle" x="534" y="-371.82" font-family="Consolas" font-size="14.00">String: &quot;codex&quot;</text>
</g>
<!-- n7&#45;&gt;n9 -->
<g id="edge8" class="edge">
<title>n7&#45;&gt;n9</title>
<path fill="none" stroke="black" d="M534,-431.7C534,-424.41 534,-415.73 534,-407.54"/>
<polygon fill="black" stroke="black" points="537.5,-407.62 534,-397.62 530.5,-407.62 537.5,-407.62"/>
</g>
<!-- n11 -->
<g id="node12" class="node">
<title>n11</title>
<path fill="none" stroke="black" d="M680,-396C680,-396 628,-396 628,-396 622,-396 616,-390 616,-384 616,-384 616,-372 616,-372 616,-366 622,-360 628,-360 628,-360 680,-360 680,-360 686,-360 692,-366 692,-372 692,-372 692,-384 692,-384 692,-390 686,-396 680,-396"/>
<text xml:space="preserve" text-anchor="middle" x="654" y="-371.82" font-family="Consolas" font-size="14.00">Id: flag</text>
</g>
<!-- n10&#45;&gt;n11 -->
<g id="edge10" class="edge">
<title>n10&#45;&gt;n11</title>
<path fill="none" stroke="black" d="M730.52,-431.52C717.77,-422.76 702.15,-412.04 688.35,-402.58"/>
<polygon fill="black" stroke="black" points="690.62,-399.89 680.4,-397.12 686.66,-405.66 690.62,-399.89"/>
</g>
<!-- n12 -->
<g id="node13" class="node">
<title>n12</title>
<path fill="none" stroke="black" d="M789.5,-396C789.5,-396 722.5,-396 722.5,-396 716.5,-396 710.5,-390 710.5,-384 710.5,-384 710.5,-372 710.5,-372 710.5,-366 716.5,-360 722.5,-360 722.5,-360 789.5,-360 789.5,-360 795.5,-360 801.5,-366 801.5,-372 801.5,-372 801.5,-384 801.5,-384 801.5,-390 795.5,-396 789.5,-396"/>
<text xml:space="preserve" text-anchor="middle" x="756" y="-371.82" font-family="Consolas" font-size="14.00">Bool: true</text>
</g>
<!-- n10&#45;&gt;n12 -->
<g id="edge11" class="edge">
<title>n10&#45;&gt;n12</title>
<path fill="none" stroke="black" d="M756,-431.7C756,-424.41 756,-415.73 756,-407.54"/>
<polygon fill="black" stroke="black" points="759.5,-407.62 756,-397.62 752.5,-407.62 759.5,-407.62"/>
</g>
<!-- n14 -->
<g id="node15" class="node">
<title>n14</title>
<path fill="none" stroke="black" d="M884,-396C884,-396 832,-396 832,-396 826,-396 820,-390 820,-384 820,-384 820,-372 820,-372 820,-366 826,-360 832,-360 832,-360 884,-360 884,-360 890,-360 896,-366 896,-372 896,-372 896,-384 896,-384 896,-390 890,-396 884,-396"/>
<text xml:space="preserve" text-anchor="middle" x="858" y="-371.82" font-family="Consolas" font-size="14.00">Id: nums</text>
</g>
<!-- n13&#45;&gt;n14 -->
<g id="edge16" class="edge">
<title>n13&#45;&gt;n14</title>
<path fill="none" stroke="black" d="M920.48,-431.7C910.41,-423.2 898.09,-412.81 887.07,-403.51"/>
<polygon fill="black" stroke="black" points="889.63,-401.09 879.73,-397.32 885.11,-406.45 889.63,-401.09"/>
</g>
<!-- n15 -->
<g id="node16" class="node">
<title>n15</title>
<path fill="none" stroke="black" d="M956,-396C956,-396 926,-396 926,-396 920,-396 914,-390 914,-384 914,-384 914,-372 914,-372 914,-366 920,-360 926,-360 926,-360 956,-360 956,-360 962,-360 968,-366 968,-372 968,-372 968,-384 968,-384 968,-390 962,-396 956,-396"/>
<text xml:space="preserve" text-anchor="middle" x="941" y="-371.82" font-family="Consolas" font-size="14.00">List</text>
</g>
<!-- n13&#45;&gt;n15 -->
<g id="edge17" class="edge">
<title>n13&#45;&gt;n15</title>
<path fill="none" stroke="black" d="M941,-431.7C941,-424.41 941,-415.73 941,-407.54"/>
<polygon fill="black" stroke="black" points="944.5,-407.62 941,-397.62 937.5,-407.62 944.5,-407.62"/>
</g>
<!-- n16 -->
<g id="node17" class="node">
<title>n16</title>
<path fill="none" stroke="black" d="M880.5,-324C880.5,-324 843.5,-324 843.5,-324 837.5,-324 831.5,-318 831.5,-312 831.5,-312 831.5,-300 831.5,-300 831.5,-294 837.5,-288 843.5,-288 843.5,-288 880.5,-288 880.5,-288 886.5,-288 892.5,-294 892.5,-300 892.5,-300 892.5,-312 892.5,-312 892.5,-318 886.5,-324 880.5,-324"/>
<text xml:space="preserve" text-anchor="middle" x="862" y="-299.82" font-family="Consolas" font-size="14.00">Int: 1</text>
</g>
<!-- n15&#45;&gt;n16 -->
<g id="edge13" class="edge">
<title>n15&#45;&gt;n16</title>
<path fill="none" stroke="black" d="M921.47,-359.7C911.98,-351.28 900.39,-341.02 889.98,-331.79"/>
<polygon fill="black" stroke="black" points="892.52,-329.36 882.71,-325.35 887.87,-334.6 892.52,-329.36"/>
</g>
<!-- n17 -->
<g id="node18" class="node">
<title>n17</title>
<path fill="none" stroke="black" d="M959.5,-324C959.5,-324 922.5,-324 922.5,-324 916.5,-324 910.5,-318 910.5,-312 910.5,-312 910.5,-300 910.5,-300 910.5,-294 916.5,-288 922.5,-288 922.5,-288 959.5,-288 959.5,-288 965.5,-288 971.5,-294 971.5,-300 971.5,-300 971.5,-312 971.5,-312 971.5,-318 965.5,-324 959.5,-324"/>
<text xml:space="preserve" text-anchor="middle" x="941" y="-299.82" font-family="Consolas" font-size="14.00">Int: 2</text>
</g>
<!-- n15&#45;&gt;n17 -->
<g id="edge14" class="edge">
<title>n15&#45;&gt;n17</title>
<path fill="none" stroke="black" d="M941,-359.7C941,-352.41 941,-343.73 941,-335.54"/>
<polygon fill="black" stroke="black" points="944.5,-335.62 941,-325.62 937.5,-335.62 944.5,-335.62"/>
</g>
<!-- n18 -->
<g id="node19" class="node">
<title>n18</title>
<path fill="none" stroke="black" d="M1038.5,-324C1038.5,-324 1001.5,-324 1001.5,-324 995.5,-324 989.5,-318 989.5,-312 989.5,-312 989.5,-300 989.5,-300 989.5,-294 995.5,-288 1001.5,-288 1001.5,-288 1038.5,-288 1038.5,-288 1044.5,-288 1050.5,-294 1050.5,-300 1050.5,-300 1050.5,-312 1050.5,-312 1050.5,-318 1044.5,-324 1038.5,-324"/>
<text xml:space="preserve" text-anchor="middle" x="1020" y="-299.82" font-family="Consolas" font-size="14.00">Int: 3</text>
</g>
<!-- n15&#45;&gt;n18 -->
<g id="edge15" class="edge">
<title>n15&#45;&gt;n18</title>
<path fill="none" stroke="black" d="M960.53,-359.7C970.02,-351.28 981.61,-341.02 992.02,-331.79"/>
<polygon fill="black" stroke="black" points="994.13,-334.6 999.29,-325.35 989.48,-329.36 994.13,-334.6"/>
</g>
<!-- n20 -->
<g id="node21" class="node">
<title>n20</title>
<path fill="none" stroke="black" d="M1042.25,-396C1042.25,-396 997.75,-396 997.75,-396 991.75,-396 985.75,-390 985.75,-384 985.75,-384 985.75,-372 985.75,-372 985.75,-366 991.75,-360 997.75,-360 997.75,-360 1042.25,-360 1042.25,-360 1048.25,-360 1054.25,-366 1054.25,-372 1054.25,-372 1054.25,-384 1054.25,-384 1054.25,-390 1048.25,-396 1042.25,-396"/>
<text xml:space="preserve" text-anchor="middle" x="1020" y="-371.82" font-family="Consolas" font-size="14.00">Id: cnt</text>
</g>
<!-- n19&#45;&gt;n20 -->
<g id="edge19" class="edge">
<title>n19&#45;&gt;n20</title>
<path fill="none" stroke="black" d="M1067.43,-431.7C1060.03,-423.47 1051.03,-413.48 1042.88,-404.42"/>
<polygon fill="black" stroke="black" points="1045.7,-402.32 1036.41,-397.23 1040.49,-407 1045.7,-402.32"/>
</g>
<!-- n21 -->
<g id="node22" class="node">
<title>n21</title>
<path fill="none" stroke="black" d="M1121.5,-396C1121.5,-396 1084.5,-396 1084.5,-396 1078.5,-396 1072.5,-390 1072.5,-384 1072.5,-384 1072.5,-372 1072.5,-372 1072.5,-366 1078.5,-360 1084.5,-360 1084.5,-360 1121.5,-360 1121.5,-360 1127.5,-360 1133.5,-366 1133.5,-372 1133.5,-372 1133.5,-384 1133.5,-384 1133.5,-390 1127.5,-396 1121.5,-396"/>
<text xml:space="preserve" text-anchor="middle" x="1103" y="-371.82" font-family="Consolas" font-size="14.00">Int: 0</text>
</g>
<!-- n19&#45;&gt;n21 -->
<g id="edge20" class="edge">
<title>n19&#45;&gt;n21</title>
<path fill="none" stroke="black" d="M1087.94,-431.7C1090.08,-424.24 1092.62,-415.32 1095.01,-406.97"/>
<polygon fill="black" stroke="black" points="1098.32,-408.14 1097.7,-397.56 1091.58,-406.21 1098.32,-408.14"/>
</g>
<!-- n23 -->
<g id="node24" class="node">
<title>n23</title>
<path fill="none" stroke="black" d="M1194,-396C1194,-396 1164,-396 1164,-396 1158,-396 1152,-390 1152,-384 1152,-384 1152,-372 1152,-372 1152,-366 1158,-360 1164,-360 1164,-360 1194,-360 1194,-360 1200,-360 1206,-366 1206,-372 1206,-372 1206,-384 1206,-384 1206,-390 1200,-396 1194,-396"/>
<text xml:space="preserve" text-anchor="middle" x="1179" y="-371.82" font-family="Consolas" font-size="14.00">Id: x</text>
</g>
<!-- n22&#45;&gt;n23 -->
<g id="edge22" class="edge">
<title>n22&#45;&gt;n23</title>
<path fill="none" stroke="black" d="M1191.8,-431.7C1190.01,-424.32 1187.87,-415.52 1185.86,-407.25"/>
<polygon fill="black" stroke="black" points="1189.27,-406.47 1183.51,-397.58 1182.47,-408.12 1189.27,-406.47"/>
</g>
<!-- n24 -->
<g id="node25" class="node">
<title>n24</title>
<path fill="none" stroke="black" d="M1273.5,-396C1273.5,-396 1236.5,-396 1236.5,-396 1230.5,-396 1224.5,-390 1224.5,-384 1224.5,-384 1224.5,-372 1224.5,-372 1224.5,-366 1230.5,-360 1236.5,-360 1236.5,-360 1273.5,-360 1273.5,-360 1279.5,-360 1285.5,-366 1285.5,-372 1285.5,-372 1285.5,-384 1285.5,-384 1285.5,-390 1279.5,-396 1273.5,-396"/>
<text xml:space="preserve" text-anchor="middle" x="1255" y="-371.82" font-family="Consolas" font-size="14.00">Int: 5</text>
</g>
<!-- n22&#45;&gt;n24 -->
<g id="edge23" class="edge">
<title>n22&#45;&gt;n24</title>
<path fill="none" stroke="black" d="M1210.58,-431.7C1217.44,-423.56 1225.76,-413.69 1233.34,-404.7"/>
<polygon fill="black" stroke="black" points="1235.84,-407.16 1239.61,-397.26 1230.49,-402.65 1235.84,-407.16"/>
</g>
<!-- n26 -->
<g id="node27" class="node">
<title>n26</title>
<path fill="none" stroke="black" d="M1346,-396C1346,-396 1316,-396 1316,-396 1310,-396 1304,-390 1304,-384 1304,-384 1304,-372 1304,-372 1304,-366 1310,-360 1316,-360 1316,-360 1346,-360 1346,-360 1352,-360 1358,-366 1358,-372 1358,-372 1358,-384 1358,-384 1358,-390 1352,-396 1346,-396"/>
<text xml:space="preserve" text-anchor="middle" x="1331" y="-371.82" font-family="Consolas" font-size="14.00">Id: y</text>
</g>
<!-- n25&#45;&gt;n26 -->
<g id="edge25" class="edge">
<title>n25&#45;&gt;n26</title>
<path fill="none" stroke="black" d="M1331,-431.7C1331,-424.41 1331,-415.73 1331,-407.54"/>
<polygon fill="black" stroke="black" points="1334.5,-407.62 1331,-397.62 1327.5,-407.62 1334.5,-407.62"/>
</g>
<!-- n27 -->
<g id="node28" class="node">
<title>n27</title>
<path fill="none" stroke="black" d="M1425.5,-396C1425.5,-396 1388.5,-396 1388.5,-396 1382.5,-396 1376.5,-390 1376.5,-384 1376.5,-384 1376.5,-372 1376.5,-372 1376.5,-366 1382.5,-360 1388.5,-360 1388.5,-360 1425.5,-360 1425.5,-360 1431.5,-360 1437.5,-366 1437.5,-372 1437.5,-372 1437.5,-384 1437.5,-384 1437.5,-390 1431.5,-396 1425.5,-396"/>
<text xml:space="preserve" text-anchor="middle" x="1407" y="-371.82" font-family="Consolas" font-size="14.00">Int: 1</text>
</g>
<!-- n25&#45;&gt;n27 -->
<g id="edge26" class="edge">
<title>n25&#45;&gt;n27</title>
<path fill="none" stroke="black" d="M1349.79,-431.7C1358.83,-423.37 1369.84,-413.22 1379.78,-404.07"/>
<polygon fill="black" stroke="black" points="1382.07,-406.72 1387.05,-397.37 1377.33,-401.57 1382.07,-406.72"/>
</g>
<!-- n29 -->
<g id="node30" class="node">
<title>n29</title>
<path fill="none" stroke="black" d="M1534.5,-396C1534.5,-396 1467.5,-396 1467.5,-396 1461.5,-396 1455.5,-390 1455.5,-384 1455.5,-384 1455.5,-372 1455.5,-372 1455.5,-366 1461.5,-360 1467.5,-360 1467.5,-360 1534.5,-360 1534.5,-360 1540.5,-360 1546.5,-366 1546.5,-372 1546.5,-372 1546.5,-384 1546.5,-384 1546.5,-390 1540.5,-396 1534.5,-396"/>
<text xml:space="preserve" text-anchor="middle" x="1501" y="-371.82" font-family="Consolas" font-size="14.00">Binary (+)</text>
</g>
<!-- n28&#45;&gt;n29 -->
<g id="edge30" class="edge">
<title>n28&#45;&gt;n29</title>
<path fill="none" stroke="black" d="M1472.39,-431.7C1476.58,-423.98 1481.61,-414.71 1486.28,-406.11"/>
<polygon fill="black" stroke="black" points="1489.3,-407.89 1490.99,-397.43 1483.15,-404.55 1489.3,-407.89"/>
</g>
<!-- n30 -->
<g id="node31" class="node">
<title>n30</title>
<path fill="none" stroke="black" d="M1480,-324C1480,-324 1450,-324 1450,-324 1444,-324 1438,-318 1438,-312 1438,-312 1438,-300 1438,-300 1438,-294 1444,-288 1450,-288 1450,-288 1480,-288 1480,-288 1486,-288 1492,-294 1492,-300 1492,-300 1492,-312 1492,-312 1492,-318 1486,-324 1480,-324"/>
<text xml:space="preserve" text-anchor="middle" x="1465" y="-299.82" font-family="Consolas" font-size="14.00">Id: x</text>
</g>
<!-- n29&#45;&gt;n30 -->
<g id="edge28" class="edge">
<title>n29&#45;&gt;n30</title>
<path fill="none" stroke="black" d="M1492.1,-359.7C1488.13,-351.98 1483.37,-342.71 1478.94,-334.11"/>
<polygon fill="black" stroke="black" points="1482.17,-332.74 1474.49,-325.45 1475.95,-335.94 1482.17,-332.74"/>
</g>
<!-- n31 -->
<g id="node32" class="node">
<title>n31</title>
<path fill="none" stroke="black" d="M1552,-324C1552,-324 1522,-324 1522,-324 1516,-324 1510,-318 1510,-312 1510,-312 1510,-300 1510,-300 1510,-294 1516,-288 1522,-288 1522,-288 1552,-288 1552,-288 1558,-288 1564,-294 1564,-300 1564,-300 1564,-312 1564,-312 1564,-318 1558,-324 1552,-324"/>
<text xml:space="preserve" text-anchor="middle" x="1537" y="-299.82" font-family="Consolas" font-size="14.00">Id: y</text>
</g>
<!-- n29&#45;&gt;n31 -->
<g id="edge29" class="edge">
<title>n29&#45;&gt;n31</title>
<path fill="none" stroke="black" d="M1509.9,-359.7C1513.87,-351.98 1518.63,-342.71 1523.06,-334.11"/>
<polygon fill="black" stroke="black" points="1526.05,-335.94 1527.51,-325.45 1519.83,-332.74 1526.05,-335.94"/>
</g>
<!-- n33 -->
<g id="node34" class="node">
<title>n33</title>
<path fill="none" stroke="black" d="M1651.25,-396C1651.25,-396 1576.75,-396 1576.75,-396 1570.75,-396 1564.75,-390 1564.75,-384 1564.75,-384 1564.75,-372 1564.75,-372 1564.75,-366 1570.75,-360 1576.75,-360 1576.75,-360 1651.25,-360 1651.25,-360 1657.25,-360 1663.25,-366 1663.25,-372 1663.25,-372 1663.25,-384 1663.25,-384 1663.25,-390 1657.25,-396 1651.25,-396"/>
<text xml:space="preserve" text-anchor="middle" x="1614" y="-371.82" font-family="Consolas" font-size="14.00">LoopVar: ch</text>
</g>
<!-- n32&#45;&gt;n33 -->
<g id="edge34" class="edge">
<title>n32&#45;&gt;n33</title>
<path fill="none" stroke="black" d="M1653.15,-431.7C1647.23,-423.73 1640.07,-414.1 1633.51,-405.26"/>
<polygon fill="black" stroke="black" points="1636.38,-403.26 1627.61,-397.32 1630.76,-407.43 1636.38,-403.26"/>
</g>
<!-- n34 -->
<g id="node35" class="node">
<title>n34</title>
<path fill="none" stroke="black" d="M1745,-396C1745,-396 1693,-396 1693,-396 1687,-396 1681,-390 1681,-384 1681,-384 1681,-372 1681,-372 1681,-366 1687,-360 1693,-360 1693,-360 1745,-360 1745,-360 1751,-360 1757,-366 1757,-372 1757,-372 1757,-384 1757,-384 1757,-390 1751,-396 1745,-396"/>
<text xml:space="preserve" text-anchor="middle" x="1719" y="-371.82" font-family="Consolas" font-size="14.00">Id: name</text>
</g>
<!-- n32&#45;&gt;n34 -->
<g id="edge35" class="edge">
<title>n32&#45;&gt;n34</title>
<path fill="none" stroke="black" d="M1679.1,-431.7C1685.13,-423.73 1692.42,-414.1 1699.11,-405.26"/>
<polygon fill="black" stroke="black" points="1701.89,-407.4 1705.14,-397.31 1696.31,-403.17 1701.89,-407.4"/>
</g>
<!-- n35 -->
<g id="node36" class="node">
<title>n35</title>
<path fill="none" stroke="black" d="M1817,-396C1817,-396 1787,-396 1787,-396 1781,-396 1775,-390 1775,-384 1775,-384 1775,-372 1775,-372 1775,-366 1781,-360 1787,-360 1787,-360 1817,-360 1817,-360 1823,-360 1829,-366 1829,-372 1829,-372 1829,-384 1829,-384 1829,-390 1823,-396 1817,-396"/>
<text xml:space="preserve" text-anchor="middle" x="1802" y="-371.82" font-family="Consolas" font-size="14.00">Block</text>
</g>
<!-- n32&#45;&gt;n35 -->
<g id="edge36" class="edge">
<title>n32&#45;&gt;n35</title>
<path fill="none" stroke="black" d="M1693.19,-435C1713.76,-424.42 1742.24,-409.76 1764.9,-398.1"/>
<polygon fill="black" stroke="black" points="1766.22,-401.35 1773.51,-393.67 1763.01,-395.13 1766.22,-401.35"/>
</g>
<!-- n36 -->
<g id="node37" class="node">
<title>n36</title>
<path fill="none" stroke="black" d="M1817,-324C1817,-324 1787,-324 1787,-324 1781,-324 1775,-318 1775,-312 1775,-312 1775,-300 1775,-300 1775,-294 1781,-288 1787,-288 1787,-288 1817,-288 1817,-288 1823,-288 1829,-294 1829,-300 1829,-300 1829,-312 1829,-312 1829,-318 1823,-324 1817,-324"/>
<text xml:space="preserve" text-anchor="middle" x="1802" y="-299.82" font-family="Consolas" font-size="14.00">Print</text>
</g>
<!-- n35&#45;&gt;n36 -->
<g id="edge33" class="edge">
<title>n35&#45;&gt;n36</title>
<path fill="none" stroke="black" d="M1802,-359.7C1802,-352.41 1802,-343.73 1802,-335.54"/>
<polygon fill="black" stroke="black" points="1805.5,-335.62 1802,-325.62 1798.5,-335.62 1805.5,-335.62"/>
</g>
<!-- n37 -->
<g id="node38" class="node">
<title>n37</title>
<path fill="none" stroke="black" d="M1820.5,-252C1820.5,-252 1783.5,-252 1783.5,-252 1777.5,-252 1771.5,-246 1771.5,-240 1771.5,-240 1771.5,-228 1771.5,-228 1771.5,-222 1777.5,-216 1783.5,-216 1783.5,-216 1820.5,-216 1820.5,-216 1826.5,-216 1832.5,-222 1832.5,-228 1832.5,-228 1832.5,-240 1832.5,-240 1832.5,-246 1826.5,-252 1820.5,-252"/>
<text xml:space="preserve" text-anchor="middle" x="1802" y="-227.82" font-family="Consolas" font-size="14.00">Id: ch</text>
</g>
<!-- n36&#45;&gt;n37 -->
<g id="edge32" class="edge">
<title>n36&#45;&gt;n37</title>
<path fill="none" stroke="black" d="M1802,-287.7C1802,-280.41 1802,-271.73 1802,-263.54"/>
<polygon fill="black" stroke="black" points="1805.5,-263.62 1802,-253.62 1798.5,-263.62 1805.5,-263.62"/>
</g>
<!-- n39 -->
<g id="node40" class="node">
<title>n39</title>
<path fill="none" stroke="black" d="M1926.5,-396C1926.5,-396 1859.5,-396 1859.5,-396 1853.5,-396 1847.5,-390 1847.5,-384 1847.5,-384 1847.5,-372 1847.5,-372 1847.5,-366 1853.5,-360 1859.5,-360 1859.5,-360 1926.5,-360 1926.5,-360 1932.5,-360 1938.5,-366 1938.5,-372 1938.5,-372 1938.5,-384 1938.5,-384 1938.5,-390 1932.5,-396 1926.5,-396"/>
<text xml:space="preserve" text-anchor="middle" x="1893" y="-371.82" font-family="Consolas" font-size="14.00">LoopVar: n</text>
</g>
<!-- n38&#45;&gt;n39 -->
<g id="edge45" class="edge">
<title>n38&#45;&gt;n39</title>
<path fill="none" stroke="black" d="M1931.39,-431.7C1925.59,-423.73 1918.57,-414.1 1912.14,-405.26"/>
<polygon fill="black" stroke="black" points="1915.07,-403.35 1906.35,-397.33 1909.41,-407.47 1915.07,-403.35"/>
</g>
<!-- n40 -->
<g id="node41" class="node">
<title>n40</title>
<path fill="none" stroke="black" d="M2021,-396C2021,-396 1969,-396 1969,-396 1963,-396 1957,-390 1957,-384 1957,-384 1957,-372 1957,-372 1957,-366 1963,-360 1969,-360 1969,-360 2021,-360 2021,-360 2027,-360 2033,-366 2033,-372 2033,-372 2033,-384 2033,-384 2033,-390 2027,-396 2021,-396"/>
<text xml:space="preserve" text-anchor="middle" x="1995" y="-371.82" font-family="Consolas" font-size="14.00">Id: nums</text>
</g>
<!-- n38&#45;&gt;n40 -->
<g id="edge46" class="edge">
<title>n38&#45;&gt;n40</title>
<path fill="none" stroke="black" d="M1956.61,-431.7C1962.41,-423.73 1969.43,-414.1 1975.86,-405.26"/>
<polygon fill="black" stroke="black" points="1978.59,-407.47 1981.65,-397.33 1972.93,-403.35 1978.59,-407.47"/>
</g>
<!-- n41 -->
<g id="node42" class="node">
<title>n41</title>
<path fill="none" stroke="black" d="M2093,-396C2093,-396 2063,-396 2063,-396 2057,-396 2051,-390 2051,-384 2051,-384 2051,-372 2051,-372 2051,-366 2057,-360 2063,-360 2063,-360 2093,-360 2093,-360 2099,-360 2105,-366 2105,-372 2105,-372 2105,-384 2105,-384 2105,-390 2099,-396 2093,-396"/>
<text xml:space="preserve" text-anchor="middle" x="2078" y="-371.82" font-family="Consolas" font-size="14.00">Block</text>
</g>
<!-- n38&#45;&gt;n41 -->
<g id="edge47" class="edge">
<title>n38&#45;&gt;n41</title>
<path fill="none" stroke="black" d="M1971.44,-434.67C1991.4,-424.24 2018.66,-410 2040.62,-398.53"/>
<polygon fill="black" stroke="black" points="2042.01,-401.75 2049.25,-394.02 2038.77,-395.54 2042.01,-401.75"/>
</g>
<!-- n42 -->
<g id="node43" class="node">
<title>n42</title>
<path fill="none" stroke="black" d="M2021.25,-324C2021.25,-324 1946.75,-324 1946.75,-324 1940.75,-324 1934.75,-318 1934.75,-312 1934.75,-312 1934.75,-300 1934.75,-300 1934.75,-294 1940.75,-288 1946.75,-288 1946.75,-288 2021.25,-288 2021.25,-288 2027.25,-288 2033.25,-294 2033.25,-300 2033.25,-300 2033.25,-312 2033.25,-312 2033.25,-318 2027.25,-324 2021.25,-324"/>
<text xml:space="preserve" text-anchor="middle" x="1984" y="-299.82" font-family="Consolas" font-size="14.00">Assign (+=)</text>
</g>
<!-- n41&#45;&gt;n42 -->
<g id="edge40" class="edge">
<title>n41&#45;&gt;n42</title>
<path fill="none" stroke="black" d="M2054.76,-359.7C2043.13,-351.03 2028.85,-340.4 2016.18,-330.96"/>
<polygon fill="black" stroke="black" points="2018.62,-328.42 2008.51,-325.25 2014.44,-334.03 2018.62,-328.42"/>
</g>
<!-- n45 -->
<g id="node46" class="node">
<title>n45</title>
<path fill="none" stroke="black" d="M2093,-324C2093,-324 2063,-324 2063,-324 2057,-324 2051,-318 2051,-312 2051,-312 2051,-300 2051,-300 2051,-294 2057,-288 2063,-288 2063,-288 2093,-288 2093,-288 2099,-288 2105,-294 2105,-300 2105,-300 2105,-312 2105,-312 2105,-318 2099,-324 2093,-324"/>
<text xml:space="preserve" text-anchor="middle" x="2078" y="-299.82" font-family="Consolas" font-size="14.00">Print</text>
</g>
<!-- n41&#45;&gt;n45 -->
<g id="edge44" class="edge">
<title>n41&#45;&gt;n45</title>
<path fill="none" stroke="black" d="M2078,-359.7C2078,-352.41 2078,-343.73 2078,-335.54"/>
<polygon fill="black" stroke="black" points="2081.5,-335.62 2078,-325.62 2074.5,-335.62 2081.5,-335.62"/>
</g>
<!-- n43 -->
<g id="node44" class="node">
<title>n43</title>
<path fill="none" stroke="black" d="M1928.25,-252C1928.25,-252 1883.75,-252 1883.75,-252 1877.75,-252 1871.75,-246 1871.75,-240 1871.75,-240 1871.75,-228 1871.75,-228 1871.75,-222 1877.75,-216 1883.75,-216 1883.75,-216 1928.25,-216 1928.25,-216 1934.25,-216 1940.25,-222 1940.25,-228 1940.25,-228 1940.25,-240 1940.25,-240 1940.25,-246 1934.25,-252 1928.25,-252"/>
<text xml:space="preserve" text-anchor="middle" x="1906" y="-227.82" font-family="Consolas" font-size="14.00">Id: cnt</text>
</g>
<!-- n42&#45;&gt;n43 -->
<g id="edge38" class="edge">
<title>n42&#45;&gt;n43</title>
<path fill="none" stroke="black" d="M1964.72,-287.7C1955.34,-279.28 1943.91,-269.02 1933.62,-259.79"/>
<polygon fill="black" stroke="black" points="1936.24,-257.43 1926.46,-253.36 1931.56,-262.64 1936.24,-257.43"/>
</g>
<!-- n44 -->
<g id="node45" class="node">
<title>n44</title>
<path fill="none" stroke="black" d="M2000,-252C2000,-252 1970,-252 1970,-252 1964,-252 1958,-246 1958,-240 1958,-240 1958,-228 1958,-228 1958,-222 1964,-216 1970,-216 1970,-216 2000,-216 2000,-216 2006,-216 2012,-222 2012,-228 2012,-228 2012,-240 2012,-240 2012,-246 2006,-252 2000,-252"/>
<text xml:space="preserve" text-anchor="middle" x="1985" y="-227.82" font-family="Consolas" font-size="14.00">Id: n</text>
</g>
<!-- n42&#45;&gt;n44 -->
<g id="edge39" class="edge">
<title>n42&#45;&gt;n44</title>
<path fill="none" stroke="black" d="M1984.25,-287.7C1984.35,-280.41 1984.48,-271.73 1984.59,-263.54"/>
<polygon fill="black" stroke="black" points="1988.09,-263.67 1984.73,-253.62 1981.09,-263.57 1988.09,-263.67"/>
</g>
<!-- n46 -->
<g id="node47" class="node">
<title>n46</title>
<path fill="none" stroke="black" d="M2110.5,-252C2110.5,-252 2043.5,-252 2043.5,-252 2037.5,-252 2031.5,-246 2031.5,-240 2031.5,-240 2031.5,-228 2031.5,-228 2031.5,-222 2037.5,-216 2043.5,-216 2043.5,-216 2110.5,-216 2110.5,-216 2116.5,-216 2122.5,-222 2122.5,-228 2122.5,-228 2122.5,-240 2122.5,-240 2122.5,-246 2116.5,-252 2110.5,-252"/>
<text xml:space="preserve" text-anchor="middle" x="2077" y="-227.82" font-family="Consolas" font-size="14.00">Binary (/)</text>
</g>
<!-- n45&#45;&gt;n46 -->
<g id="edge43" class="edge">
<title>n45&#45;&gt;n46</title>
<path fill="none" stroke="black" d="M2077.75,-287.7C2077.65,-280.41 2077.52,-271.73 2077.41,-263.54"/>
<polygon fill="black" stroke="black" points="2080.91,-263.57 2077.27,-253.62 2073.91,-263.67 2080.91,-263.57"/>
</g>
<!-- n47 -->
<g id="node48" class="node">
<title>n47</title>
<path fill="none" stroke="black" d="M2016,-180C2016,-180 1986,-180 1986,-180 1980,-180 1974,-174 1974,-168 1974,-168 1974,-156 1974,-156 1974,-150 1980,-144 1986,-144 1986,-144 2016,-144 2016,-144 2022,-144 2028,-150 2028,-156 2028,-156 2028,-168 2028,-168 2028,-174 2022,-180 2016,-180"/>
<text xml:space="preserve" text-anchor="middle" x="2001" y="-155.82" font-family="Consolas" font-size="14.00">Id: n</text>
</g>
<!-- n46&#45;&gt;n47 -->
<g id="edge41" class="edge">
<title>n46&#45;&gt;n47</title>
<path fill="none" stroke="black" d="M2058.21,-215.7C2049.17,-207.37 2038.16,-197.22 2028.22,-188.07"/>
<polygon fill="black" stroke="black" points="2030.67,-185.57 2020.95,-181.37 2025.93,-190.72 2030.67,-185.57"/>
</g>
<!-- n48 -->
<g id="node49" class="node">
<title>n48</title>
<path fill="none" stroke="black" d="M2095.5,-180C2095.5,-180 2058.5,-180 2058.5,-180 2052.5,-180 2046.5,-174 2046.5,-168 2046.5,-168 2046.5,-156 2046.5,-156 2046.5,-150 2052.5,-144 2058.5,-144 2058.5,-144 2095.5,-144 2095.5,-144 2101.5,-144 2107.5,-150 2107.5,-156 2107.5,-156 2107.5,-168 2107.5,-168 2107.5,-174 2101.5,-180 2095.5,-180"/>
<text xml:space="preserve" text-anchor="middle" x="2077" y="-155.82" font-family="Consolas" font-size="14.00">Int: 2</text>
</g>
<!-- n46&#45;&gt;n48 -->
<g id="edge42" class="edge">
<title>n46&#45;&gt;n48</title>
<path fill="none" stroke="black" d="M2077,-215.7C2077,-208.41 2077,-199.73 2077,-191.54"/>
<polygon fill="black" stroke="black" points="2080.5,-191.62 2077,-181.62 2073.5,-191.62 2080.5,-191.62"/>
</g>
<!-- n50 -->
<g id="node51" class="node">
<title>n50</title>
<path fill="none" stroke="black" d="M2214.5,-396C2214.5,-396 2147.5,-396 2147.5,-396 2141.5,-396 2135.5,-390 2135.5,-384 2135.5,-384 2135.5,-372 2135.5,-372 2135.5,-366 2141.5,-360 2147.5,-360 2147.5,-360 2214.5,-360 2214.5,-360 2220.5,-360 2226.5,-366 2226.5,-372 2226.5,-372 2226.5,-384 2226.5,-384 2226.5,-390 2220.5,-396 2214.5,-396"/>
<text xml:space="preserve" text-anchor="middle" x="2181" y="-371.82" font-family="Consolas" font-size="14.00">LoopVar: i</text>
</g>
<!-- n49&#45;&gt;n50 -->
<g id="edge66" class="edge">
<title>n49&#45;&gt;n50</title>
<path fill="none" stroke="black" d="M2214.88,-431.7C2209.81,-423.81 2203.7,-414.3 2198.07,-405.55"/>
<polygon fill="black" stroke="black" points="2201.17,-403.9 2192.81,-397.38 2195.28,-407.68 2201.17,-403.9"/>
</g>
<!-- n51 -->
<g id="node52" class="node">
<title>n51</title>
<path fill="none" stroke="black" d="M2287,-396C2287,-396 2257,-396 2257,-396 2251,-396 2245,-390 2245,-384 2245,-384 2245,-372 2245,-372 2245,-366 2251,-360 2257,-360 2257,-360 2287,-360 2287,-360 2293,-360 2299,-366 2299,-372 2299,-372 2299,-384 2299,-384 2299,-390 2293,-396 2287,-396"/>
<text xml:space="preserve" text-anchor="middle" x="2272" y="-371.82" font-family="Consolas" font-size="14.00">Range</text>
</g>
<!-- n49&#45;&gt;n51 -->
<g id="edge67" class="edge">
<title>n49&#45;&gt;n51</title>
<path fill="none" stroke="black" d="M2237.37,-431.7C2242.55,-423.81 2248.8,-414.3 2254.56,-405.55"/>
<polygon fill="black" stroke="black" points="2257.36,-407.65 2259.93,-397.37 2251.51,-403.8 2257.36,-407.65"/>
</g>
<!-- n54 -->
<g id="node55" class="node">
<title>n54</title>
<path fill="none" stroke="black" d="M2376,-396C2376,-396 2346,-396 2346,-396 2340,-396 2334,-390 2334,-384 2334,-384 2334,-372 2334,-372 2334,-366 2340,-360 2346,-360 2346,-360 2376,-360 2376,-360 2382,-360 2388,-366 2388,-372 2388,-372 2388,-384 2388,-384 2388,-390 2382,-396 2376,-396"/>
<text xml:space="preserve" text-anchor="middle" x="2361" y="-371.82" font-family="Consolas" font-size="14.00">Block</text>
</g>
<!-- n49&#45;&gt;n54 -->
<g id="edge68" class="edge">
<title>n49&#45;&gt;n54</title>
<path fill="none" stroke="black" d="M2253.32,-434.83C2273.54,-424.35 2301.32,-409.94 2323.6,-398.39"/>
<polygon fill="black" stroke="black" points="2325.11,-401.55 2332.38,-393.84 2321.89,-395.34 2325.11,-401.55"/>
</g>
<!-- n52 -->
<g id="node53" class="node">
<title>n52</title>
<path fill="none" stroke="black" d="M2217.5,-324C2217.5,-324 2180.5,-324 2180.5,-324 2174.5,-324 2168.5,-318 2168.5,-312 2168.5,-312 2168.5,-300 2168.5,-300 2168.5,-294 2174.5,-288 2180.5,-288 2180.5,-288 2217.5,-288 2217.5,-288 2223.5,-288 2229.5,-294 2229.5,-300 2229.5,-300 2229.5,-312 2229.5,-312 2229.5,-318 2223.5,-324 2217.5,-324"/>
<text xml:space="preserve" text-anchor="middle" x="2199" y="-299.82" font-family="Consolas" font-size="14.00">Int: 1</text>
</g>
<!-- n51&#45;&gt;n52 -->
<g id="edge49" class="edge">
<title>n51&#45;&gt;n52</title>
<path fill="none" stroke="black" d="M2253.96,-359.7C2245.27,-351.37 2234.69,-341.22 2225.14,-332.07"/>
<polygon fill="black" stroke="black" points="2227.82,-329.79 2218.18,-325.39 2222.98,-334.84 2227.82,-329.79"/>
</g>
<!-- n53 -->
<g id="node54" class="node">
<title>n53</title>
<path fill="none" stroke="black" d="M2296.5,-324C2296.5,-324 2259.5,-324 2259.5,-324 2253.5,-324 2247.5,-318 2247.5,-312 2247.5,-312 2247.5,-300 2247.5,-300 2247.5,-294 2253.5,-288 2259.5,-288 2259.5,-288 2296.5,-288 2296.5,-288 2302.5,-288 2308.5,-294 2308.5,-300 2308.5,-300 2308.5,-312 2308.5,-312 2308.5,-318 2302.5,-324 2296.5,-324"/>
<text xml:space="preserve" text-anchor="middle" x="2278" y="-299.82" font-family="Consolas" font-size="14.00">Int: 5</text>
</g>
<!-- n51&#45;&gt;n53 -->
<g id="edge50" class="edge">
<title>n51&#45;&gt;n53</title>
<path fill="none" stroke="black" d="M2273.48,-359.7C2274.11,-352.41 2274.85,-343.73 2275.55,-335.54"/>
<polygon fill="black" stroke="black" points="2279.04,-335.87 2276.4,-325.61 2272.06,-335.28 2279.04,-335.87"/>
</g>
<!-- n55 -->
<g id="node56" class="node">
<title>n55</title>
<path fill="none" stroke="black" d="M2393,-324C2393,-324 2363,-324 2363,-324 2357,-324 2351,-318 2351,-312 2351,-312 2351,-300 2351,-300 2351,-294 2357,-288 2363,-288 2363,-288 2393,-288 2393,-288 2399,-288 2405,-294 2405,-300 2405,-300 2405,-312 2405,-312 2405,-318 2399,-324 2393,-324"/>
<text xml:space="preserve" text-anchor="middle" x="2378" y="-299.82" font-family="Consolas" font-size="14.00">If</text>
</g>
<!-- n54&#45;&gt;n55 -->
<g id="edge65" class="edge">
<title>n54&#45;&gt;n55</title>
<path fill="none" stroke="black" d="M2365.2,-359.7C2366.99,-352.32 2369.13,-343.52 2371.14,-335.25"/>
<polygon fill="black" stroke="black" points="2374.53,-336.12 2373.49,-325.58 2367.73,-334.47 2374.53,-336.12"/>
</g>
<!-- n56 -->
<g id="node57" class="node">
<title>n56</title>
<path fill="none" stroke="black" d="M2325,-252C2325,-252 2273,-252 2273,-252 2267,-252 2261,-246 2261,-240 2261,-240 2261,-228 2261,-228 2261,-222 2267,-216 2273,-216 2273,-216 2325,-216 2325,-216 2331,-216 2337,-222 2337,-228 2337,-228 2337,-240 2337,-240 2337,-246 2331,-252 2325,-252"/>
<text xml:space="preserve" text-anchor="middle" x="2299" y="-227.82" font-family="Consolas" font-size="14.00">Id: flag</text>
</g>
<!-- n55&#45;&gt;n56 -->
<g id="edge59" class="edge">
<title>n55&#45;&gt;n56</title>
<path fill="none" stroke="black" d="M2358.47,-287.7C2348.98,-279.28 2337.39,-269.02 2326.98,-259.79"/>
<polygon fill="black" stroke="black" points="2329.52,-257.36 2319.71,-253.35 2324.87,-262.6 2329.52,-257.36"/>
</g>
<!-- n57 -->
<g id="node58" class="node">
<title>n57</title>
<path fill="none" stroke="black" d="M2397,-252C2397,-252 2367,-252 2367,-252 2361,-252 2355,-246 2355,-240 2355,-240 2355,-228 2355,-228 2355,-222 2361,-216 2367,-216 2367,-216 2397,-216 2397,-216 2403,-216 2409,-222 2409,-228 2409,-228 2409,-240 2409,-240 2409,-246 2403,-252 2397,-252"/>
<text xml:space="preserve" text-anchor="middle" x="2382" y="-227.82" font-family="Consolas" font-size="14.00">Block</text>
</g>
<!-- n55&#45;&gt;n57 -->
<g id="edge60" class="edge">
<title>n55&#45;&gt;n57</title>
<path fill="none" stroke="black" d="M2378.99,-287.7C2379.41,-280.41 2379.9,-271.73 2380.37,-263.54"/>
<polygon fill="black" stroke="black" points="2383.86,-263.8 2380.94,-253.62 2376.87,-263.4 2383.86,-263.8"/>
</g>
<!-- n66 -->
<g id="node67" class="node">
<title>n66</title>
<path fill="none" stroke="black" d="M2527,-252C2527,-252 2497,-252 2497,-252 2491,-252 2485,-246 2485,-240 2485,-240 2485,-228 2485,-228 2485,-222 2491,-216 2497,-216 2497,-216 2527,-216 2527,-216 2533,-216 2539,-222 2539,-228 2539,-228 2539,-240 2539,-240 2539,-246 2533,-252 2527,-252"/>
<text xml:space="preserve" text-anchor="middle" x="2512" y="-227.82" font-family="Consolas" font-size="14.00">Else</text>
</g>
<!-- n55&#45;&gt;n66 -->
<g id="edge61" class="edge">
<title>n55&#45;&gt;n66</title>
<path fill="none" stroke="black" d="M2405.44,-290.67C2425.4,-280.24 2452.66,-266 2474.62,-254.53"/>
<polygon fill="black" stroke="black" points="2476.01,-257.75 2483.25,-250.02 2472.77,-251.54 2476.01,-257.75"/>
</g>
<!-- n58 -->
<g id="node59" class="node">
<title>n58</title>
<path fill="none" stroke="black" d="M2212.25,-180C2212.25,-180 2137.75,-180 2137.75,-180 2131.75,-180 2125.75,-174 2125.75,-168 2125.75,-168 2125.75,-156 2125.75,-156 2125.75,-150 2131.75,-144 2137.75,-144 2137.75,-144 2212.25,-144 2212.25,-144 2218.25,-144 2224.25,-150 2224.25,-156 2224.25,-156 2224.25,-168 2224.25,-168 2224.25,-174 2218.25,-180 2212.25,-180"/>
<text xml:space="preserve" text-anchor="middle" x="2175" y="-155.82" font-family="Consolas" font-size="14.00">Assign (+=)</text>
</g>
<!-- n57&#45;&gt;n58 -->
<g id="edge53" class="edge">
<title>n57&#45;&gt;n58</title>
<path fill="none" stroke="black" d="M2354.66,-219.6C2351.76,-218.33 2348.83,-217.1 2346,-216 2309.95,-201.98 2268.55,-189.07 2235.51,-179.5"/>
<polygon fill="black" stroke="black" points="2236.68,-176.19 2226.1,-176.8 2234.75,-182.92 2236.68,-176.19"/>
</g>
<!-- n61 -->
<g id="node62" class="node">
<title>n61</title>
<path fill="none" stroke="black" d="M2415.5,-180C2415.5,-180 2348.5,-180 2348.5,-180 2342.5,-180 2336.5,-174 2336.5,-168 2336.5,-168 2336.5,-156 2336.5,-156 2336.5,-150 2342.5,-144 2348.5,-144 2348.5,-144 2415.5,-144 2415.5,-144 2421.5,-144 2427.5,-150 2427.5,-156 2427.5,-156 2427.5,-168 2427.5,-168 2427.5,-174 2421.5,-180 2415.5,-180"/>
<text xml:space="preserve" text-anchor="middle" x="2382" y="-155.82" font-family="Consolas" font-size="14.00">Assign (=)</text>
</g>
<!-- n57&#45;&gt;n61 -->
<g id="edge56" class="edge">
<title>n57&#45;&gt;n61</title>
<path fill="none" stroke="black" d="M2382,-215.7C2382,-208.41 2382,-199.73 2382,-191.54"/>
<polygon fill="black" stroke="black" points="2385.5,-191.62 2382,-181.62 2378.5,-191.62 2385.5,-191.62"/>
</g>
<!-- n64 -->
<g id="node65" class="node">
<title>n64</title>
<path fill="none" stroke="black" d="M2504,-180C2504,-180 2474,-180 2474,-180 2468,-180 2462,-174 2462,-168 2462,-168 2462,-156 2462,-156 2462,-150 2468,-144 2474,-144 2474,-144 2504,-144 2504,-144 2510,-144 2516,-150 2516,-156 2516,-156 2516,-168 2516,-168 2516,-174 2510,-180 2504,-180"/>
<text xml:space="preserve" text-anchor="middle" x="2489" y="-155.82" font-family="Consolas" font-size="14.00">Print</text>
</g>
<!-- n57&#45;&gt;n64 -->
<g id="edge58" class="edge">
<title>n57&#45;&gt;n64</title>
<path fill="none" stroke="black" d="M2408.72,-215.52C2422.23,-206.68 2438.81,-195.84 2453.38,-186.3"/>
<polygon fill="black" stroke="black" points="2454.9,-189.49 2461.35,-181.09 2451.06,-183.63 2454.9,-189.49"/>
</g>
<!-- n59 -->
<g id="node60" class="node">
<title>n59</title>
<path fill="none" stroke="black" d="M2116.25,-108C2116.25,-108 2071.75,-108 2071.75,-108 2065.75,-108 2059.75,-102 2059.75,-96 2059.75,-96 2059.75,-84 2059.75,-84 2059.75,-78 2065.75,-72 2071.75,-72 2071.75,-72 2116.25,-72 2116.25,-72 2122.25,-72 2128.25,-78 2128.25,-84 2128.25,-84 2128.25,-96 2128.25,-96 2128.25,-102 2122.25,-108 2116.25,-108"/>
<text xml:space="preserve" text-anchor="middle" x="2094" y="-83.83" font-family="Consolas" font-size="14.00">Id: cnt</text>
</g>
<!-- n58&#45;&gt;n59 -->
<g id="edge51" class="edge">
<title>n58&#45;&gt;n59</title>
<path fill="none" stroke="black" d="M2154.98,-143.7C2145.24,-135.28 2133.36,-125.02 2122.69,-115.79"/>
<polygon fill="black" stroke="black" points="2125.07,-113.23 2115.22,-109.34 2120.5,-118.52 2125.07,-113.23"/>
</g>
<!-- n60 -->
<g id="node61" class="node">
<title>n60</title>
<path fill="none" stroke="black" d="M2188,-108C2188,-108 2158,-108 2158,-108 2152,-108 2146,-102 2146,-96 2146,-96 2146,-84 2146,-84 2146,-78 2152,-72 2158,-72 2158,-72 2188,-72 2188,-72 2194,-72 2200,-78 2200,-84 2200,-84 2200,-96 2200,-96 2200,-102 2194,-108 2188,-108"/>
<text xml:space="preserve" text-anchor="middle" x="2173" y="-83.83" font-family="Consolas" font-size="14.00">Id: i</text>
</g>
<!-- n58&#45;&gt;n60 -->
<g id="edge52" class="edge">
<title>n58&#45;&gt;n60</title>
<path fill="none" stroke="black" d="M2174.51,-143.7C2174.3,-136.41 2174.05,-127.73 2173.82,-119.54"/>
<polygon fill="black" stroke="black" points="2177.32,-119.51 2173.53,-109.62 2170.32,-119.71 2177.32,-119.51"/>
</g>
<!-- n62 -->
<g id="node63" class="node">
<title>n62</title>
<path fill="none" stroke="black" d="M2274.25,-108C2274.25,-108 2229.75,-108 2229.75,-108 2223.75,-108 2217.75,-102 2217.75,-96 2217.75,-96 2217.75,-84 2217.75,-84 2217.75,-78 2223.75,-72 2229.75,-72 2229.75,-72 2274.25,-72 2274.25,-72 2280.25,-72 2286.25,-78 2286.25,-84 2286.25,-84 2286.25,-96 2286.25,-96 2286.25,-102 2280.25,-108 2274.25,-108"/>
<text xml:space="preserve" text-anchor="middle" x="2252" y="-83.83" font-family="Consolas" font-size="14.00">Id: msg</text>
</g>
<!-- n61&#45;&gt;n62 -->
<g id="edge54" class="edge">
<title>n61&#45;&gt;n62</title>
<path fill="none" stroke="black" d="M2349.53,-143.52C2332.73,-134.47 2312.02,-123.32 2294.02,-113.62"/>
<polygon fill="black" stroke="black" points="2295.85,-110.64 2285.39,-108.98 2292.53,-116.8 2295.85,-110.64"/>
</g>
<!-- n63 -->
<g id="node64" class="node">
<title>n63</title>
<path fill="none" stroke="black" d="M2451.25,-108C2451.25,-108 2316.75,-108 2316.75,-108 2310.75,-108 2304.75,-102 2304.75,-96 2304.75,-96 2304.75,-84 2304.75,-84 2304.75,-78 2310.75,-72 2316.75,-72 2316.75,-72 2451.25,-72 2451.25,-72 2457.25,-72 2463.25,-78 2463.25,-84 2463.25,-84 2463.25,-96 2463.25,-96 2463.25,-102 2457.25,-108 2451.25,-108"/>
<text xml:space="preserve" text-anchor="middle" x="2384" y="-83.83" font-family="Consolas" font-size="14.00">String: &quot;inside&#45;if&quot;</text>
</g>
<!-- n61&#45;&gt;n63 -->
<g id="edge55" class="edge">
<title>n61&#45;&gt;n63</title>
<path fill="none" stroke="black" d="M2382.49,-143.7C2382.7,-136.41 2382.95,-127.73 2383.18,-119.54"/>
<polygon fill="black" stroke="black" points="2386.68,-119.71 2383.47,-109.62 2379.68,-119.51 2386.68,-119.71"/>
</g>
<!-- n65 -->
<g id="node66" class="node">
<title>n65</title>
<path fill="none" stroke="black" d="M2523,-108C2523,-108 2493,-108 2493,-108 2487,-108 2481,-102 2481,-96 2481,-96 2481,-84 2481,-84 2481,-78 2487,-72 2493,-72 2493,-72 2523,-72 2523,-72 2529,-72 2535,-78 2535,-84 2535,-84 2535,-96 2535,-96 2535,-102 2529,-108 2523,-108"/>
<text xml:space="preserve" text-anchor="middle" x="2508" y="-83.83" font-family="Consolas" font-size="14.00">Id: i</text>
</g>
<!-- n64&#45;&gt;n65 -->
<g id="edge57" class="edge">
<title>n64&#45;&gt;n65</title>
<path fill="none" stroke="black" d="M2493.7,-143.7C2495.72,-136.24 2498.14,-127.32 2500.41,-118.97"/>
<polygon fill="black" stroke="black" points="2503.72,-120.13 2502.96,-109.57 2496.96,-118.3 2503.72,-120.13"/>
</g>
<!-- n67 -->
<g id="node68" class="node">
<title>n67</title>
<path fill="none" stroke="black" d="M2584,-180C2584,-180 2554,-180 2554,-180 2548,-180 2542,-174 2542,-168 2542,-168 2542,-156 2542,-156 2542,-150 2548,-144 2554,-144 2554,-144 2584,-144 2584,-144 2590,-144 2596,-150 2596,-156 2596,-156 2596,-168 2596,-168 2596,-174 2590,-180 2584,-180"/>
<text xml:space="preserve" text-anchor="middle" x="2569" y="-155.82" font-family="Consolas" font-size="14.00">Block</text>
</g>
<!-- n66&#45;&gt;n67 -->
<g id="edge64" class="edge">
<title>n66&#45;&gt;n67</title>
<path fill="none" stroke="black" d="M2526.09,-215.7C2532.65,-207.64 2540.59,-197.89 2547.84,-188.98"/>
<polygon fill="black" stroke="black" points="2550.52,-191.24 2554.12,-181.28 2545.09,-186.82 2550.52,-191.24"/>
</g>
<!-- n68 -->
<g id="node69" class="node">
<title>n68</title>
<path fill="none" stroke="black" d="M2595,-108C2595,-108 2565,-108 2565,-108 2559,-108 2553,-102 2553,-96 2553,-96 2553,-84 2553,-84 2553,-78 2559,-72 2565,-72 2565,-72 2595,-72 2595,-72 2601,-72 2607,-78 2607,-84 2607,-84 2607,-96 2607,-96 2607,-102 2601,-108 2595,-108"/>
<text xml:space="preserve" text-anchor="middle" x="2580" y="-83.83" font-family="Consolas" font-size="14.00">Print</text>
</g>
<!-- n67&#45;&gt;n68 -->
<g id="edge63" class="edge">
<title>n67&#45;&gt;n68</title>
<path fill="none" stroke="black" d="M2571.72,-143.7C2572.88,-136.32 2574.26,-127.52 2575.56,-119.25"/>
<polygon fill="black" stroke="black" points="2578.98,-120.02 2577.08,-109.6 2572.07,-118.93 2578.98,-120.02"/>
</g>
<!-- n69 -->
<g id="node70" class="node">
<title>n69</title>
<path fill="none" stroke="black" d="M2598.5,-36C2598.5,-36 2561.5,-36 2561.5,-36 2555.5,-36 2549.5,-30 2549.5,-24 2549.5,-24 2549.5,-12 2549.5,-12 2549.5,-6 2555.5,0 2561.5,0 2561.5,0 2598.5,0 2598.5,0 2604.5,0 2610.5,-6 2610.5,-12 2610.5,-12 2610.5,-24 2610.5,-24 2610.5,-30 2604.5,-36 2598.5,-36"/>
<text xml:space="preserve" text-anchor="middle" x="2580" y="-11.82" font-family="Consolas" font-size="14.00">Int: 0</text>
</g>
<!-- n68&#45;&gt;n69 -->
<g id="edge62" class="edge">
<title>n68&#45;&gt;n69</title>
<path fill="none" stroke="black" d="M2580,-71.7C2580,-64.41 2580,-55.73 2580,-47.54"/>
<polygon fill="black" stroke="black" points="2583.5,-47.62 2580,-37.62 2576.5,-47.62 2583.5,-47.62"/>
</g>
</g>
</svg>
