<?xml version="1.0" encoding="UTF-8" standalone="no"?>
<!DOCTYPE svg PUBLIC "-//W3C//DTD SVG 1.1//EN"
 "http://www.w3.org/Graphics/SVG/1.1/DTD/svg11.dtd">
<!-- Generated by graphviz version 14.1.4 (20260321.0153)
 -->
<!-- Title: AST Pages: 1 -->
<svg width="980pt" height="404pt"
 viewBox="0.00 0.00 980.00 404.00" xmlns="http://www.w3.org/2000/svg" xmlns:xlink="http://www.w3.org/1999/xlink">
<g id="graph0" class="graph" transform="scale(1 1) rotate(0) translate(4 400)">
<title>AST</title>
<polygon fill="white" stroke="none" points="-4,4 -4,-400 975.75,-400 975.75,4 -4,4"/>
<!-- n0 -->
<g id="node1" class="node">
<title>n0</title>
<path fill="none" stroke="black" d="M414.75,-396C414.75,-396 370.25,-396 370.25,-396 364.25,-396 358.25,-390 358.25,-384 358.25,-384 358.25,-372 358.25,-372 358.25,-366 364.25,-360 370.25,-360 370.25,-360 414.75,-360 414.75,-360 420.75,-360 426.75,-366 426.75,-372 426.75,-372 426.75,-384 426.75,-384 426.75,-390 420.75,-396 414.75,-396"/>
<text xml:space="preserve" text-anchor="middle" x="392.5" y="-371.82" font-family="Consolas" font-size="14.00">Program</text>
</g>
<!-- n1 -->
<g id="node2" class="node">
<title>n1</title>
<path fill="none" stroke="black" d="M175,-324C175,-324 108,-324 108,-324 102,-324 96,-318 96,-312 96,-312 96,-300 96,-300 96,-294 102,-288 108,-288 108,-288 175,-288 175,-288 181,-288 187,-294 187,-300 187,-300 187,-312 187,-312 187,-318 181,-324 175,-324"/>
<text xml:space="preserve" text-anchor="middle" x="141.5" y="-299.82" font-family="Consolas" font-size="14.00">Assign (=)</text>
</g>
<!-- n0&#45;&gt;n1 -->
<g id="edge6" class="edge">
<title>n0&#45;&gt;n1</title>
<path fill="none" stroke="black" d="M357.86,-367.34C316.69,-355.86 247.4,-336.53 198.33,-322.85"/>
<polygon fill="black" stroke="black" points="199.29,-319.48 188.72,-320.17 197.41,-326.23 199.29,-319.48"/>
</g>
<!-- n7 -->
<g id="node8" class="node">
<title>n7</title>
<path fill="none" stroke="black" d="M372,-324C372,-324 305,-324 305,-324 299,-324 293,-318 293,-312 293,-312 293,-300 293,-300 293,-294 299,-288 305,-288 305,-288 372,-288 372,-288 378,-288 384,-294 384,-300 384,-300 384,-312 384,-312 384,-318 378,-324 372,-324"/>
<text xml:space="preserve" text-anchor="middle" x="338.5" y="-299.82" font-family="Consolas" font-size="14.00">Assign (=)</text>
</g>
<!-- n0&#45;&gt;n7 -->
<g id="edge12" class="edge">
<title>n0&#45;&gt;n7</title>
<path fill="none" stroke="black" d="M379.15,-359.7C372.94,-351.64 365.42,-341.89 358.54,-332.98"/>
<polygon fill="black" stroke="black" points="361.5,-331.08 352.62,-325.3 355.96,-335.36 361.5,-331.08"/>
</g>
<!-- n13 -->
<g id="node14" class="node">
<title>n13</title>
<path fill="none" stroke="black" d="M481,-324C481,-324 414,-324 414,-324 408,-324 402,-318 402,-312 402,-312 402,-300 402,-300 402,-294 408,-288 414,-288 414,-288 481,-288 481,-288 487,-288 493,-294 493,-300 493,-300 493,-312 493,-312 493,-318 487,-324 481,-324"/>
<text xml:space="preserve" text-anchor="middle" x="447.5" y="-299.82" font-family="Consolas" font-size="14.00">Assign (=)</text>
</g>
<!-- n0&#45;&gt;n13 -->
<g id="edge21" class="edge">
<title>n0&#45;&gt;n13</title>
<path fill="none" stroke="black" d="M406.1,-359.7C412.42,-351.64 420.08,-341.89 427.09,-332.98"/>
<polygon fill="black" stroke="black" points="429.7,-335.32 433.13,-325.29 424.2,-331 429.7,-335.32"/>
</g>
<!-- n22 -->
<g id="node23" class="node">
<title>n22</title>
<path fill="none" stroke="black" d="M707.5,-324C707.5,-324 677.5,-324 677.5,-324 671.5,-324 665.5,-318 665.5,-312 665.5,-312 665.5,-300 665.5,-300 665.5,-294 671.5,-288 677.5,-288 677.5,-288 707.5,-288 707.5,-288 713.5,-288 719.5,-294 719.5,-300 719.5,-300 719.5,-312 719.5,-312 719.5,-318 713.5,-324 707.5,-324"/>
<text xml:space="preserve" text-anchor="middle" x="692.5" y="-299.82" font-family="Consolas" font-size="14.00">For</text>
</g>
<!-- n0&#45;&gt;n22 -->
<g id="edge32" class="edge">
<title>n0&#45;&gt;n22</title>
<path fill="none" stroke="black" d="M427.21,-368.9C483.74,-355.71 595.31,-329.68 654.13,-315.95"/>
<polygon fill="black" stroke="black" points="654.74,-319.4 663.68,-313.72 653.15,-312.59 654.74,-319.4"/>
</g>
<!-- n2 -->
<g id="node3" class="node">
<title>n2</title>
<path fill="none" stroke="black" d="M84.25,-252C84.25,-252 24.75,-252 24.75,-252 18.75,-252 12.75,-246 12.75,-240 12.75,-240 12.75,-228 12.75,-228 12.75,-222 18.75,-216 24.75,-216 24.75,-216 84.25,-216 84.25,-216 90.25,-216 96.25,-222 96.25,-228 96.25,-228 96.25,-240 96.25,-240 96.25,-246 90.25,-252 84.25,-252"/>
<text xml:space="preserve" text-anchor="middle" x="54.5" y="-227.82" font-family="Consolas" font-size="14.00">Id: nums1</text>
</g>
<!-- n1&#45;&gt;n2 -->
<g id="edge4" class="edge">
<title>n1&#45;&gt;n2</title>
<path fill="none" stroke="black" d="M119.99,-287.7C109.43,-279.2 96.52,-268.81 84.97,-259.51"/>
<polygon fill="black" stroke="black" points="87.22,-256.84 77.24,-253.3 82.84,-262.29 87.22,-256.84"/>
</g>
<!-- n3 -->
<g id="node4" class="node">
<title>n3</title>
<path fill="none" stroke="black" d="M156.5,-252C156.5,-252 126.5,-252 126.5,-252 120.5,-252 114.5,-246 114.5,-240 114.5,-240 114.5,-228 114.5,-228 114.5,-222 120.5,-216 126.5,-216 126.5,-216 156.5,-216 156.5,-216 162.5,-216 168.5,-222 168.5,-228 168.5,-228 168.5,-240 168.5,-240 168.5,-246 162.5,-252 156.5,-252"/>
<text xml:space="preserve" text-anchor="middle" x="141.5" y="-227.82" font-family="Consolas" font-size="14.00">List</text>
</g>
<!-- n1&#45;&gt;n3 -->
<g id="edge5" class="edge">
<title>n1&#45;&gt;n3</title>
<path fill="none" stroke="black" d="M141.5,-287.7C141.5,-280.41 141.5,-271.73 141.5,-263.54"/>
<polygon fill="black" stroke="black" points="145,-263.62 141.5,-253.62 138,-263.62 145,-263.62"/>
</g>
<!-- n4 -->
<g id="node5" class="node">
<title>n4</title>
<path fill="none" stroke="black" d="M49,-180C49,-180 12,-180 12,-180 6,-180 0,-174 0,-168 0,-168 0,-156 0,-156 0,-150 6,-144 12,-144 12,-144 49,-144 49,-144 55,-144 61,-150 61,-156 61,-156 61,-168 61,-168 61,-174 55,-180 49,-180"/>
<text xml:space="preserve" text-anchor="middle" x="30.5" y="-155.82" font-family="Consolas" font-size="14.00">Int: 1</text>
</g>
<!-- n3&#45;&gt;n4 -->
<g id="edge1" class="edge">
<title>n3&#45;&gt;n4</title>
<path fill="none" stroke="black" d="M114.06,-215.7C100.05,-206.86 82.81,-195.99 67.63,-186.41"/>
<polygon fill="black" stroke="black" points="69.61,-183.53 59.29,-181.15 65.88,-189.45 69.61,-183.53"/>
</g>
<!-- n5 -->
<g id="node6" class="node">
<title>n5</title>
<path fill="none" stroke="black" d="M128,-180C128,-180 91,-180 91,-180 85,-180 79,-174 79,-168 79,-168 79,-156 79,-156 79,-150 85,-144 91,-144 91,-144 128,-144 128,-144 134,-144 140,-150 140,-156 140,-156 140,-168 140,-168 140,-174 134,-180 128,-180"/>
<text xml:space="preserve" text-anchor="middle" x="109.5" y="-155.82" font-family="Consolas" font-size="14.00">Int: 2</text>
</g>
<!-- n3&#45;&gt;n5 -->
<g id="edge2" class="edge">
<title>n3&#45;&gt;n5</title>
<path fill="none" stroke="black" d="M133.59,-215.7C130.1,-208.07 125.92,-198.92 122.02,-190.4"/>
<polygon fill="black" stroke="black" points="125.29,-189.12 117.95,-181.48 118.92,-192.03 125.29,-189.12"/>
</g>
<!-- n6 -->
<g id="node7" class="node">
<title>n6</title>
<path fill="none" stroke="black" d="M207,-180C207,-180 170,-180 170,-180 164,-180 158,-174 158,-168 158,-168 158,-156 158,-156 158,-150 164,-144 170,-144 170,-144 207,-144 207,-144 213,-144 219,-150 219,-156 219,-156 219,-168 219,-168 219,-174 213,-180 207,-180"/>
<text xml:space="preserve" text-anchor="middle" x="188.5" y="-155.82" font-family="Consolas" font-size="14.00">Int: 3</text>
</g>
<!-- n3&#45;&gt;n6 -->
<g id="edge3" class="edge">
<title>n3&#45;&gt;n6</title>
<path fill="none" stroke="black" d="M153.12,-215.7C158.41,-207.81 164.8,-198.3 170.68,-189.55"/>
<polygon fill="black" stroke="black" points="173.5,-191.61 176.17,-181.36 167.69,-187.71 173.5,-191.61"/>
</g>
<!-- n8 -->
<g id="node9" class="node">
<title>n8</title>
<path fill="none" stroke="black" d="M289.25,-252C289.25,-252 229.75,-252 229.75,-252 223.75,-252 217.75,-246 217.75,-240 217.75,-240 217.75,-228 217.75,-228 217.75,-222 223.75,-216 229.75,-216 229.75,-216 289.25,-216 289.25,-216 295.25,-216 301.25,-222 301.25,-228 301.25,-228 301.25,-240 301.25,-240 301.25,-246 295.25,-252 289.25,-252"/>
<text xml:space="preserve" text-anchor="middle" x="259.5" y="-227.82" font-family="Consolas" font-size="14.00">Id: nums2</text>
</g>
<!-- n7&#45;&gt;n8 -->
<g id="edge10" class="edge">
<title>n7&#45;&gt;n8</title>
<path fill="none" stroke="black" d="M318.97,-287.7C309.48,-279.28 297.89,-269.02 287.48,-259.79"/>
<polygon fill="black" stroke="black" points="290.02,-257.36 280.21,-253.35 285.37,-262.6 290.02,-257.36"/>
</g>
<!-- n9 -->
<g id="node10" class="node">
<title>n9</title>
<path fill="none" stroke="black" d="M361.5,-252C361.5,-252 331.5,-252 331.5,-252 325.5,-252 319.5,-246 319.5,-240 319.5,-240 319.5,-228 319.5,-228 319.5,-222 325.5,-216 331.5,-216 331.5,-216 361.5,-216 361.5,-216 367.5,-216 373.5,-222 373.5,-228 373.5,-228 373.5,-240 373.5,-240 373.5,-246 367.5,-252 361.5,-252"/>
<text xml:space="preserve" text-anchor="middle" x="346.5" y="-227.82" font-family="Consolas" font-size="14.00">List</text>
</g>
<!-- n7&#45;&gt;n9 -->
<g id="edge11" class="edge">
<title>n7&#45;&gt;n9</title>
<path fill="none" stroke="black" d="M340.48,-287.7C341.31,-280.41 342.3,-271.73 343.24,-263.54"/>
<polygon fill="black" stroke="black" points="346.72,-263.94 344.37,-253.61 339.76,-263.15 346.72,-263.94"/>
</g>
<!-- n10 -->
<g id="node11" class="node">
<title>n10</title>
<path fill="none" stroke="black" d="M286,-180C286,-180 249,-180 249,-180 243,-180 237,-174 237,-168 237,-168 237,-156 237,-156 237,-150 243,-144 249,-144 249,-144 286,-144 286,-144 292,-144 298,-150 298,-156 298,-156 298,-168 298,-168 298,-174 292,-180 286,-180"/>
<text xml:space="preserve" text-anchor="middle" x="267.5" y="-155.82" font-family="Consolas" font-size="14.00">Int: 4</text>
</g>
<!-- n9&#45;&gt;n10 -->
<g id="edge7" class="edge">
<title>n9&#45;&gt;n10</title>
<path fill="none" stroke="black" d="M326.97,-215.7C317.48,-207.28 305.89,-197.02 295.48,-187.79"/>
<polygon fill="black" stroke="black" points="298.02,-185.36 288.21,-181.35 293.37,-190.6 298.02,-185.36"/>
</g>
<!-- n11 -->
<g id="node12" class="node">
<title>n11</title>
<path fill="none" stroke="black" d="M365,-180C365,-180 328,-180 328,-180 322,-180 316,-174 316,-168 316,-168 316,-156 316,-156 316,-150 322,-144 328,-144 328,-144 365,-144 365,-144 371,-144 377,-150 377,-156 377,-156 377,-168 377,-168 377,-174 371,-180 365,-180"/>
<text xml:space="preserve" text-anchor="middle" x="346.5" y="-155.82" font-family="Consolas" font-size="14.00">Int: 5</text>
</g>
<!-- n9&#45;&gt;n11 -->
<g id="edge8" class="edge">
<title>n9&#45;&gt;n11</title>
<path fill="none" stroke="black" d="M346.5,-215.7C346.5,-208.41 346.5,-199.73 346.5,-191.54"/>
<polygon fill="black" stroke="black" points="350,-191.62 346.5,-181.62 343,-191.62 350,-191.62"/>
</g>
<!-- n12 -->
<g id="node13" class="node">
<title>n12</title>
<path fill="none" stroke="black" d="M444,-180C444,-180 407,-180 407,-180 401,-180 395,-174 395,-168 395,-168 395,-156 395,-156 395,-150 401,-144 407,-144 407,-144 444,-144 444,-144 450,-144 456,-150 456,-156 456,-156 456,-168 456,-168 456,-174 450,-180 444,-180"/>
<text xml:space="preserve" text-anchor="middle" x="425.5" y="-155.82" font-family="Consolas" font-size="14.00">Int: 6</text>
</g>
<!-- n9&#45;&gt;n12 -->
<g id="edge9" class="edge">
<title>n9&#45;&gt;n12</title>
<path fill="none" stroke="black" d="M366.03,-215.7C375.52,-207.28 387.11,-197.02 397.52,-187.79"/>
<polygon fill="black" stroke="black" points="399.63,-190.6 404.79,-181.35 394.98,-185.36 399.63,-190.6"/>
</g>
<!-- n14 -->
<g id="node15" class="node">
<title>n14</title>
<path fill="none" stroke="black" d="M474,-252C474,-252 407,-252 407,-252 401,-252 395,-246 395,-240 395,-240 395,-228 395,-228 395,-222 401,-216 407,-216 407,-216 474,-216 474,-216 480,-216 486,-222 486,-228 486,-228 486,-240 486,-240 486,-246 480,-252 474,-252"/>
<text xml:space="preserve" text-anchor="middle" x="440.5" y="-227.82" font-family="Consolas" font-size="14.00">Id: matrix</text>
</g>
<!-- n13&#45;&gt;n14 -->
<g id="edge19" class="edge">
<title>n13&#45;&gt;n14</title>
<path fill="none" stroke="black" d="M445.77,-287.7C445.04,-280.41 444.17,-271.73 443.35,-263.54"/>
<polygon fill="black" stroke="black" points="446.84,-263.21 442.36,-253.61 439.87,-263.91 446.84,-263.21"/>
</g>
<!-- n15 -->
<g id="node16" class="node">
<title>n15</title>
<path fill="none" stroke="black" d="M546.5,-252C546.5,-252 516.5,-252 516.5,-252 510.5,-252 504.5,-246 504.5,-240 504.5,-240 504.5,-228 504.5,-228 504.5,-222 510.5,-216 516.5,-216 516.5,-216 546.5,-216 546.5,-216 552.5,-216 558.5,-222 558.5,-228 558.5,-228 558.5,-240 558.5,-240 558.5,-246 552.5,-252 546.5,-252"/>
<text xml:space="preserve" text-anchor="middle" x="531.5" y="-227.82" font-family="Consolas" font-size="14.00">List</text>
</g>
<!-- n13&#45;&gt;n15 -->
<g id="edge20" class="edge">
<title>n13&#45;&gt;n15</title>
<path fill="none" stroke="black" d="M468.26,-287.7C478.46,-279.2 490.92,-268.81 502.08,-259.51"/>
<polygon fill="black" stroke="black" points="504.08,-262.41 509.52,-253.32 499.6,-257.03 504.08,-262.41"/>
</g>
<!-- n16 -->
<g id="node17" class="node">
<title>n16</title>
<path fill="none" stroke="black" d="M516.5,-180C516.5,-180 486.5,-180 486.5,-180 480.5,-180 474.5,-174 474.5,-168 474.5,-168 474.5,-156 474.5,-156 474.5,-150 480.5,-144 486.5,-144 486.5,-144 516.5,-144 516.5,-144 522.5,-144 528.5,-150 528.5,-156 528.5,-156 528.5,-168 528.5,-168 528.5,-174 522.5,-180 516.5,-180"/>
<text xml:space="preserve" text-anchor="middle" x="501.5" y="-155.82" font-family="Consolas" font-size="14.00">List</text>
</g>
<!-- n15&#45;&gt;n16 -->
<g id="edge15" class="edge">
<title>n15&#45;&gt;n16</title>
<path fill="none" stroke="black" d="M524.08,-215.7C520.85,-208.15 516.98,-199.12 513.36,-190.68"/>
<polygon fill="black" stroke="black" points="516.58,-189.31 509.43,-181.5 510.15,-192.07 516.58,-189.31"/>
</g>
<!-- n19 -->
<g id="node20" class="node">
<title>n19</title>
<path fill="none" stroke="black" d="M594.5,-180C594.5,-180 564.5,-180 564.5,-180 558.5,-180 552.5,-174 552.5,-168 552.5,-168 552.5,-156 552.5,-156 552.5,-150 558.5,-144 564.5,-144 564.5,-144 594.5,-144 594.5,-144 600.5,-144 606.5,-150 606.5,-156 606.5,-156 606.5,-168 606.5,-168 606.5,-174 600.5,-180 594.5,-180"/>
<text xml:space="preserve" text-anchor="middle" x="579.5" y="-155.82" font-family="Consolas" font-size="14.00">List</text>
</g>
<!-- n15&#45;&gt;n19 -->
<g id="edge18" class="edge">
<title>n15&#45;&gt;n19</title>
<path fill="none" stroke="black" d="M543.37,-215.7C548.77,-207.81 555.29,-198.3 561.3,-189.55"/>
<polygon fill="black" stroke="black" points="564.15,-191.58 566.92,-181.35 558.37,-187.62 564.15,-191.58"/>
</g>
<!-- n17 -->
<g id="node18" class="node">
<title>n17</title>
<path fill="none" stroke="black" d="M440,-108C440,-108 403,-108 403,-108 397,-108 391,-102 391,-96 391,-96 391,-84 391,-84 391,-78 397,-72 403,-72 403,-72 440,-72 440,-72 446,-72 452,-78 452,-84 452,-84 452,-96 452,-96 452,-102 446,-108 440,-108"/>
<text xml:space="preserve" text-anchor="middle" x="421.5" y="-83.83" font-family="Consolas" font-size="14.00">Int: 1</text>
</g>
<!-- n16&#45;&gt;n17 -->
<g id="edge13" class="edge">
<title>n16&#45;&gt;n17</title>
<path fill="none" stroke="black" d="M481.72,-143.7C472.11,-135.28 460.38,-125.02 449.83,-115.79"/>
<polygon fill="black" stroke="black" points="452.29,-113.29 442.46,-109.34 447.69,-118.56 452.29,-113.29"/>
</g>
<!-- n18 -->
<g id="node19" class="node">
<title>n18</title>
<path fill="none" stroke="black" d="M519,-108C519,-108 482,-108 482,-108 476,-108 470,-102 470,-96 470,-96 470,-84 470,-84 470,-78 476,-72 482,-72 482,-72 519,-72 519,-72 525,-72 531,-78 531,-84 531,-84 531,-96 531,-96 531,-102 525,-108 519,-108"/>
<text xml:space="preserve" text-anchor="middle" x="500.5" y="-83.83" font-family="Consolas" font-size="14.00">Int: 2</text>
</g>
<!-- n16&#45;&gt;n18 -->
<g id="edge14" class="edge">
<title>n16&#45;&gt;n18</title>
<path fill="none" stroke="black" d="M501.25,-143.7C501.15,-136.41 501.02,-127.73 500.91,-119.54"/>
<polygon fill="black" stroke="black" points="504.41,-119.57 500.77,-109.62 497.41,-119.67 504.41,-119.57"/>
</g>
<!-- n20 -->
<g id="node21" class="node">
<title>n20</title>
<path fill="none" stroke="black" d="M598,-108C598,-108 561,-108 561,-108 555,-108 549,-102 549,-96 549,-96 549,-84 549,-84 549,-78 555,-72 561,-72 561,-72 598,-72 598,-72 604,-72 610,-78 610,-84 610,-84 610,-96 610,-96 610,-102 604,-108 598,-108"/>
<text xml:space="preserve" text-anchor="middle" x="579.5" y="-83.83" font-family="Consolas" font-size="14.00">Int: 3</text>
</g>
<!-- n19&#45;&gt;n20 -->
<g id="edge16" class="edge">
<title>n19&#45;&gt;n20</title>
<path fill="none" stroke="black" d="M579.5,-143.7C579.5,-136.41 579.5,-127.73 579.5,-119.54"/>
<polygon fill="black" stroke="black" points="583,-119.62 579.5,-109.62 576,-119.62 583,-119.62"/>
</g>
<!-- n21 -->
<g id="node22" class="node">
<title>n21</title>
<path fill="none" stroke="black" d="M677,-108C677,-108 640,-108 640,-108 634,-108 628,-102 628,-96 628,-96 628,-84 628,-84 628,-78 634,-72 640,-72 640,-72 677,-72 677,-72 683,-72 689,-78 689,-84 689,-84 689,-96 689,-96 689,-102 683,-108 677,-108"/>
<text xml:space="preserve" text-anchor="middle" x="658.5" y="-83.83" font-family="Consolas" font-size="14.00">Int: 4</text>
</g>
<!-- n19&#45;&gt;n21 -->
<g id="edge17" class="edge">
<title>n19&#45;&gt;n21</title>
<path fill="none" stroke="black" d="M599.03,-143.7C608.52,-135.28 620.11,-125.02 630.52,-115.79"/>
<polygon fill="black" stroke="black" points="632.63,-118.6 637.79,-109.35 627.98,-113.36 632.63,-118.6"/>
</g>
<!-- n23 -->
<g id="node24" class="node">
<title>n23</title>
<path fill="none" stroke="black" d="M679.25,-252C679.25,-252 589.75,-252 589.75,-252 583.75,-252 577.75,-246 577.75,-240 577.75,-240 577.75,-228 577.75,-228 577.75,-222 583.75,-216 589.75,-216 589.75,-216 679.25,-216 679.25,-216 685.25,-216 691.25,-222 691.25,-228 691.25,-228 691.25,-240 691.25,-240 691.25,-246 685.25,-252 679.25,-252"/>
<text xml:space="preserve" text-anchor="middle" x="634.5" y="-227.82" font-family="Consolas" font-size="14.00">LoopVar: item</text>
</g>
<!-- n22&#45;&gt;n23 -->
<g id="edge29" class="edge">
<title>n22&#45;&gt;n23</title>
<path fill="none" stroke="black" d="M678.16,-287.7C671.42,-279.56 663.24,-269.69 655.8,-260.7"/>
<polygon fill="black" stroke="black" points="658.71,-258.74 649.64,-253.27 653.32,-263.2 658.71,-258.74"/>
</g>
<!-- n24 -->
<g id="node25" class="node">
<title>n24</title>
<path fill="none" stroke="black" d="M781.25,-252C781.25,-252 721.75,-252 721.75,-252 715.75,-252 709.75,-246 709.75,-240 709.75,-240 709.75,-228 709.75,-228 709.75,-222 715.75,-216 721.75,-216 721.75,-216 781.25,-216 781.25,-216 787.25,-216 793.25,-222 793.25,-228 793.25,-228 793.25,-240 793.25,-240 793.25,-246 787.25,-252 781.25,-252"/>
<text xml:space="preserve" text-anchor="middle" x="751.5" y="-227.82" font-family="Consolas" font-size="14.00">Id: nums1</text>
</g>
<!-- n22&#45;&gt;n24 -->
<g id="edge30" class="edge">
<title>n22&#45;&gt;n24</title>
<path fill="none" stroke="black" d="M707.08,-287.7C713.94,-279.56 722.26,-269.69 729.84,-260.7"/>
<polygon fill="black" stroke="black" points="732.34,-263.16 736.11,-253.26 726.99,-258.65 732.34,-263.16"/>
</g>
<!-- n25 -->
<g id="node26" class="node">
<title>n25</title>
<path fill="none" stroke="black" d="M854.5,-252C854.5,-252 824.5,-252 824.5,-252 818.5,-252 812.5,-246 812.5,-240 812.5,-240 812.5,-228 812.5,-228 812.5,-222 818.5,-216 824.5,-216 824.5,-216 854.5,-216 854.5,-216 860.5,-216 866.5,-222 866.5,-228 866.5,-228 866.5,-240 866.5,-240 866.5,-246 860.5,-252 854.5,-252"/>
<text xml:space="preserve" text-anchor="middle" x="839.5" y="-227.82" font-family="Consolas" font-size="14.00">Block</text>
</g>
<!-- n22&#45;&gt;n25 -->
<g id="edge31" class="edge">
<title>n22&#45;&gt;n25</title>
<path fill="none" stroke="black" d="M719.81,-292C743.01,-280.95 776.55,-264.98 802.22,-252.75"/>
<polygon fill="black" stroke="black" points="803.45,-256.04 810.97,-248.58 800.44,-249.72 803.45,-256.04"/>
</g>
<!-- n26 -->
<g id="node27" class="node">
<title>n26</title>
<path fill="none" stroke="black" d="M873,-180C873,-180 806,-180 806,-180 800,-180 794,-174 794,-168 794,-168 794,-156 794,-156 794,-150 800,-144 806,-144 806,-144 873,-144 873,-144 879,-144 885,-150 885,-156 885,-156 885,-168 885,-168 885,-174 879,-180 873,-180"/>
<text xml:space="preserve" text-anchor="middle" x="839.5" y="-155.82" font-family="Consolas" font-size="14.00">Assign (=)</text>
</g>
<!-- n25&#45;&gt;n26 -->
<g id="edge26" class="edge">
<title>n25&#45;&gt;n26</title>
<path fill="none" stroke="black" d="M839.5,-215.7C839.5,-208.41 839.5,-199.73 839.5,-191.54"/>
<polygon fill="black" stroke="black" points="843,-191.62 839.5,-181.62 836,-191.62 843,-191.62"/>
</g>
<!-- n31 -->
<g id="node32" class="node">
<title>n31</title>
<path fill="none" stroke="black" d="M948.5,-180C948.5,-180 918.5,-180 918.5,-180 912.5,-180 906.5,-174 906.5,-168 906.5,-168 906.5,-156 906.5,-156 906.5,-150 912.5,-144 918.5,-144 918.5,-144 948.5,-144 948.5,-144 954.5,-144 960.5,-150 960.5,-156 960.5,-156 960.5,-168 960.5,-168 960.5,-174 954.5,-180 948.5,-180"/>
<text xml:space="preserve" text-anchor="middle" x="933.5" y="-155.82" font-family="Consolas" font-size="14.00">Print</text>
</g>
<!-- n25&#45;&gt;n31 -->
<g id="edge28" class="edge">
<title>n25&#45;&gt;n31</title>
<path fill="none" stroke="black" d="M862.74,-215.7C874.37,-207.03 888.65,-196.4 901.32,-186.96"/>
<polygon fill="black" stroke="black" points="903.06,-190.03 908.99,-181.25 898.88,-184.42 903.06,-190.03"/>
</g>
<!-- n27 -->
<g id="node28" class="node">
<title>n27</title>
<path fill="none" stroke="black" d="M763.75,-108C763.75,-108 719.25,-108 719.25,-108 713.25,-108 707.25,-102 707.25,-96 707.25,-96 707.25,-84 707.25,-84 707.25,-78 713.25,-72 719.25,-72 719.25,-72 763.75,-72 763.75,-72 769.75,-72 775.75,-78 775.75,-84 775.75,-84 775.75,-96 775.75,-96 775.75,-102 769.75,-108 763.75,-108"/>
<text xml:space="preserve" text-anchor="middle" x="741.5" y="-83.83" font-family="Consolas" font-size="14.00">Id: val</text>
</g>
<!-- n26&#45;&gt;n27 -->
<g id="edge24" class="edge">
<title>n26&#45;&gt;n27</title>
<path fill="none" stroke="black" d="M815.02,-143.52C802.89,-134.85 788.05,-124.25 774.89,-114.85"/>
<polygon fill="black" stroke="black" points="777.07,-112.1 766.9,-109.14 773,-117.8 777.07,-112.1"/>
</g>
<!-- n28 -->
<g id="node29" class="node">
<title>n28</title>
<path fill="none" stroke="black" d="M873,-108C873,-108 806,-108 806,-108 800,-108 794,-102 794,-96 794,-96 794,-84 794,-84 794,-78 800,-72 806,-72 806,-72 873,-72 873,-72 879,-72 885,-78 885,-84 885,-84 885,-96 885,-96 885,-102 879,-108 873,-108"/>
<text xml:space="preserve" text-anchor="middle" x="839.5" y="-83.83" font-family="Consolas" font-size="14.00">Binary (+)</text>
</g>
<!-- n26&#45;&gt;n28 -->
<g id="edge25" class="edge">
<title>n26&#45;&gt;n28</title>
<path fill="none" stroke="black" d="M839.5,-143.7C839.5,-136.41 839.5,-127.73 839.5,-119.54"/>
<polygon fill="black" stroke="black" points="843,-119.62 839.5,-109.62 836,-119.62 843,-119.62"/>
</g>
<!-- n29 -->
<g id="node30" class="node">
<title>n29</title>
<path fill="none" stroke="black" d="M820.5,-36C820.5,-36 768.5,-36 768.5,-36 762.5,-36 756.5,-30 756.5,-24 756.5,-24 756.5,-12 756.5,-12 756.5,-6 762.5,0 768.5,0 768.5,0 820.5,0 820.5,0 826.5,0 832.5,-6 832.5,-12 832.5,-12 832.5,-24 832.5,-24 832.5,-30 826.5,-36 820.5,-36"/>
<text xml:space="preserve" text-anchor="middle" x="794.5" y="-11.82" font-family="Consolas" font-size="14.00">Id: item</text>
</g>
<!-- n28&#45;&gt;n29 -->
<g id="edge22" class="edge">
<title>n28&#45;&gt;n29</title>
<path fill="none" stroke="black" d="M828.38,-71.7C823.31,-63.81 817.2,-54.3 811.57,-45.55"/>
<polygon fill="black" stroke="black" points="814.67,-43.9 806.31,-37.38 808.78,-47.68 814.67,-43.9"/>
</g>
<!-- n30 -->
<g id="node31" class="node">
<title>n30</title>
<path fill="none" stroke="black" d="M906.75,-36C906.75,-36 862.25,-36 862.25,-36 856.25,-36 850.25,-30 850.25,-24 850.25,-24 850.25,-12 850.25,-12 850.25,-6 856.25,0 862.25,0 862.25,0 906.75,0 906.75,0 912.75,0 918.75,-6 918.75,-12 918.75,-12 918.75,-24 918.75,-24 918.75,-30 912.75,-36 906.75,-36"/>
<text xml:space="preserve" text-anchor="middle" x="884.5" y="-11.82" font-family="Consolas" font-size="14.00">Int: 10</text>
</g>
<!-- n28&#45;&gt;n30 -->
<g id="edge23" class="edge">
<title>n28&#45;&gt;n30</title>
<path fill="none" stroke="black" d="M850.62,-71.7C855.69,-63.81 861.8,-54.3 867.43,-45.55"/>
<polygon fill="black" stroke="black" points="870.22,-47.68 872.69,-37.38 864.33,-43.9 870.22,-47.68"/>
</g>
<!-- n32 -->
<g id="node33" class="node">
<title>n32</title>
<path fill="none" stroke="black" d="M959.75,-108C959.75,-108 915.25,-108 915.25,-108 909.25,-108 903.25,-102 903.25,-96 903.25,-96 903.25,-84 903.25,-84 903.25,-78 909.25,-72 915.25,-72 915.25,-72 959.75,-72 959.75,-72 965.75,-72 971.75,-78 971.75,-84 971.75,-84 971.75,-96 971.75,-96 971.75,-102 965.75,-108 959.75,-108"/>
<text xml:space="preserve" text-anchor="middle" x="937.5" y="-83.83" font-family="Consolas" font-size="14.00">Id: val</text>
</g>
<!-- n31&#45;&gt;n32 -->
<g id="edge27" class="edge">
<title>n31&#45;&gt;n32</title>
<path fill="none" stroke="black" d="M934.49,-143.7C934.91,-136.41 935.4,-127.73 935.87,-119.54"/>
<polygon fill="black" stroke="black" points="939.36,-119.8 936.44,-109.62 932.37,-119.4 939.36,-119.8"/>
</g>
</g>
</svg>
