<svg xmlns="http://www.w3.org/2000/svg" width="732" height="1408" viewBox="0 0 732 1408">
  <rect x="0" y="0" width="100%" height="100%" fill="#f8fafc"/>
  <text x="10" y="28" font-family="Consolas, monospace" font-size="18" font-weight="700" fill="#0f172a">LL(1) Panic-Mode Recovery (Pop/Scan)</text>
  <rect x="10" y="44" width="276" height="28" fill="#dbeafe" stroke="#94a3b8"/>
  <text x="20" y="62" font-family="Consolas, monospace" font-size="13" font-weight="700" fill="#0f172a">Step</text>
  <rect x="286" y="44" width="436" height="28" fill="#dbeafe" stroke="#94a3b8"/>
  <text x="296" y="62" font-family="Consolas, monospace" font-size="13" font-weight="700" fill="#0f172a">Action</text>
  <rect x="10" y="72" width="276" height="28" fill="#ffffff" stroke="#cbd5e1"/>
  <text x="20" y="90" font-family="Consolas, monospace" font-size="13" fill="#1e293b">Accepted without recovery errors</text>
  <rect x="286" y="72" width="436" height="28" fill="#ffffff" stroke="#cbd5e1"/>
  <text x="296" y="90" font-family="Consolas, monospace" font-size="13" fill="#1e293b">yes</text>
  <rect x="10" y="100" width="276" height="28" fill="#f1f5f9" stroke="#cbd5e1"/>
  <text x="20" y="118" font-family="Consolas, monospace" font-size="13" fill="#1e293b">Recovered errors</text>
  <rect x="286" y="100" width="436" height="28" fill="#f1f5f9" stroke="#cbd5e1"/>
  <text x="296" y="118" font-family="Consolas, monospace" font-size="13" fill="#1e293b">0</text>
  <rect x="10" y="128" width="276" height="28" fill="#ffffff" stroke="#cbd5e1"/>
  <text x="20" y="146" font-family="Consolas, monospace" font-size="13" fill="#1e293b">Panic pop (terminal mismatch)</text>
  <rect x="286" y="128" width="436" height="28" fill="#ffffff" stroke="#cbd5e1"/>
  <text x="296" y="146" font-family="Consolas, monospace" font-size="13" fill="#1e293b">0</text>
  <rect x="10" y="156" width="276" height="28" fill="#f1f5f9" stroke="#cbd5e1"/>
  <text x="20" y="174" font-family="Consolas, monospace" font-size="13" fill="#1e293b">Panic pop (sync non-terminal)</text>
  <rect x="286" y="156" width="436" height="28" fill="#f1f5f9" stroke="#cbd5e1"/>
  <text x="296" y="174" font-family="Consolas, monospace" font-size="13" fill="#1e293b">0</text>
  <rect x="10" y="184" width="276" height="28" fill="#ffffff" stroke="#cbd5e1"/>
  <text x="20" y="202" font-family="Consolas, monospace" font-size="13" fill="#1e293b">Panic scan (discard token)</text>
  <rect x="286" y="184" width="436" height="28" fill="#ffffff" stroke="#cbd5e1"/>
  <text x="296" y="202" font-family="Consolas, monospace" font-size="13" fill="#1e293b">0</text>
  <rect x="10" y="212" width="276" height="28" fill="#f1f5f9" stroke="#cbd5e1"/>
  <text x="20" y="230" font-family="Consolas, monospace" font-size="13" fill="#1e293b">1</text>
  <rect x="286" y="212" width="436" height="28" fill="#f1f5f9" stroke="#cbd5e1"/>
  <text x="296" y="230" font-family="Consolas, monospace" font-size="13" fill="#1e293b">Expand Program -&gt; StmtList EOF</text>
  <rect x="10" y="240" width="276" height="28" fill="#ffffff" stroke="#cbd5e1"/>
  <text x="20" y="258" font-family="Consolas, monospace" font-size="13" fill="#1e293b">2</text>
  <rect x="286" y="240" width="436" height="28" fill="#ffffff" stroke="#cbd5e1"/>
  <text x="296" y="258" font-family="Consolas, monospace" font-size="13" fill="#1e293b">Expand StmtList -&gt; StmtTail</text>
  <rect x="10" y="268" width="276" height="28" fill="#f1f5f9" stroke="#cbd5e1"/>
  <text x="20" y="286" font-family="Consolas, monospace" font-size="13" fill="#1e293b">3</text>
  <rect x="286" y="268" width="436" height="28" fill="#f1f5f9" stroke="#cbd5e1"/>
  <text x="296" y="286" font-family="Consolas, monospace" font-size="13" fill="#1e293b">Expand StmtTail -&gt; IDENT AssignOp Expr StmtTail</text>
  <rect x="10" y="296" width="276" height="28" fill="#ffffff" stroke="#cbd5e1"/>
  <text x="20" y="314" font-family="Consolas, monospace" font-size="13" fill="#1e293b">4</text>
  <rect x="286" y="296" width="436" height="28" fill="#ffffff" stroke="#cbd5e1"/>
  <text x="296" y="314" font-family="Consolas, monospace" font-size="13" fill="#1e293b">Match terminal &apos;IDENT&apos;</text>
  <rect x="10" y="324" width="276" height="28" fill="#f1f5f9" stroke="#cbd5e1"/>
  <text x="20" y="342" font-family="Consolas, monospace" font-size="13" fill="#1e293b">5</text>
  <rect x="286" y="324" width="436" height="28" fill="#f1f5f9" stroke="#cbd5e1"/>
  <text x="296" y="342" font-family="Consolas, monospace" font-size="13" fill="#1e293b">Expand AssignOp -&gt; ASSIGN</text>
  <rect x="10" y="352" width="276" height="28" fill="#ffffff" stroke="#cbd5e1"/>
  <text x="20" y="370" font-family="Consolas, monospace" font-size="13" fill="#1e293b">6</text>
  <rect x="286" y="352" width="436" height="28" fill="#ffffff" stroke="#cbd5e1"/>
  <text x="296" y="370" font-family="Consolas, monospace" font-size="13" fill="#1e293b">Match terminal &apos;ASSIGN&apos;</text>
  <rect x="10" y="380" width="276" height="28" fill="#f1f5f9" stroke="#cbd5e1"/>
  <text x="20" y="398" font-family="Consolas, monospace" font-size="13" fill="#1e293b">7</text>
  <rect x="286" y="380" width="436" height="28" fill="#f1f5f9" stroke="#cbd5e1"/>
  <text x="296" y="398" font-family="Consolas, monospace" font-size="13" fill="#1e293b">Expand Expr -&gt; Term Expr&apos;</text>
  <rect x="10" y="408" width="276" height="28" fill="#ffffff" stroke="#cbd5e1"/>
  <text x="20" y="426" font-family="Consolas, monospace" font-size="13" fill="#1e293b">8</text>
  <rect x="286" y="408" width="436" height="28" fill="#ffffff" stroke="#cbd5e1"/>
  <text x="296" y="426" font-family="Consolas, monospace" font-size="13" fill="#1e293b">Expand Term -&gt; INT Term&apos;</text>
  <rect x="10" y="436" width="276" height="28" fill="#f1f5f9" stroke="#cbd5e1"/>
  <text x="20" y="454" font-family="Consolas, monospace" font-size="13" fill="#1e293b">9</text>
  <rect x="286" y="436" width="436" height="28" fill="#f1f5f9" stroke="#cbd5e1"/>
  <text x="296" y="454" font-family="Consolas, monospace" font-size="13" fill="#1e293b">Match terminal &apos;INT&apos;</text>
  <rect x="10" y="464" width="276" height="28" fill="#ffffff" stroke="#cbd5e1"/>
  <text x="20" y="482" font-family="Consolas, monospace" font-size="13" fill="#1e293b">10</text>
  <rect x="286" y="464" width="436" height="28" fill="#ffffff" stroke="#cbd5e1"/>
  <text x="296" y="482" font-family="Consolas, monospace" font-size="13" fill="#1e293b">Expand Term&apos; -&gt; epsilon</text>
  <rect x="10" y="492" width="276" height="28" fill="#f1f5f9" stroke="#cbd5e1"/>
  <text x="20" y="510" font-family="Consolas, monospace" font-size="13" fill="#1e293b">11</text>
  <rect x="286" y="492" width="436" height="28" fill="#f1f5f9" stroke="#cbd5e1"/>
  <text x="296" y="510" font-family="Consolas, monospace" font-size="13" fill="#1e293b">Expand Expr&apos; -&gt; epsilon</text>
  <rect x="10" y="520" width="276" height="28" fill="#ffffff" stroke="#cbd5e1"/>
  <text x="20" y="538" font-family="Consolas, monospace" font-size="13" fill="#1e293b">12</text>
  <rect x="286" y="520" width="436" height="28" fill="#ffffff" stroke="#cbd5e1"/>
  <text x="296" y="538" font-family="Consolas, monospace" font-size="13" fill="#1e293b">Expand StmtTail -&gt; NEWLINE StmtTail</text>
  <rect x="10" y="548" width="276" height="28" fill="#f1f5f9" stroke="#cbd5e1"/>
  <text x="20" y="566" font-family="Consolas, monospace" font-size="13" fill="#1e293b">13</text>
  <rect x="286" y="548" width="436" height="28" fill="#f1f5f9" stroke="#cbd5e1"/>
  <text x="296" y="566" font-family="Consolas, monospace" font-size="13" fill="#1e293b">Match terminal &apos;NEWLINE&apos;</text>
  <rect x="10" y="576" width="276" height="28" fill="#ffffff" stroke="#cbd5e1"/>
  <text x="20" y="594" font-family="Consolas, monospace" font-size="13" fill="#1e293b">14</text>
  <rect x="286" y="576" width="436" height="28" fill="#ffffff" stroke="#cbd5e1"/>
  <text x="296" y="594" font-family="Consolas, monospace" font-size="13" fill="#1e293b">Expand StmtTail -&gt; IDENT AssignOp Expr StmtTail</text>
  <rect x="10" y="604" width="276" height="28" fill="#f1f5f9" stroke="#cbd5e1"/>
  <text x="20" y="622" font-family="Consolas, monospace" font-size="13" fill="#1e293b">15</text>
  <rect x="286" y="604" width="436" height="28" fill="#f1f5f9" stroke="#cbd5e1"/>
  <text x="296" y="622" font-family="Consolas, monospace" font-size="13" fill="#1e293b">Match terminal &apos;IDENT&apos;</text>
  <rect x="10" y="632" width="276" height="28" fill="#ffffff" stroke="#cbd5e1"/>
  <text x="20" y="650" font-family="Consolas, monospace" font-size="13" fill="#1e293b">16</text>
  <rect x="286" y="632" width="436" height="28" fill="#ffffff" stroke="#cbd5e1"/>
  <text x="296" y="650" font-family="Consolas, monospace" font-size="13" fill="#1e293b">Expand AssignOp -&gt; ASSIGN</text>
  <rect x="10" y="660" width="276" height="28" fill="#f1f5f9" stroke="#cbd5e1"/>
  <text x="20" y="678" font-family="Consolas, monospace" font-size="13" fill="#1e293b">17</text>
  <rect x="286" y="660" width="436" height="28" fill="#f1f5f9" stroke="#cbd5e1"/>
  <text x="296" y="678" font-family="Consolas, monospace" font-size="13" fill="#1e293b">Match terminal &apos;ASSIGN&apos;</text>
  <rect x="10" y="688" width="276" height="28" fill="#ffffff" stroke="#cbd5e1"/>
  <text x="20" y="706" font-family="Consolas, monospace" font-size="13" fill="#1e293b">18</text>
  <rect x="286" y="688" width="436" height="28" fill="#ffffff" stroke="#cbd5e1"/>
  <text x="296" y="706" font-family="Consolas, monospace" font-size="13" fill="#1e293b">Expand Expr -&gt; Term Expr&apos;</text>
  <rect x="10" y="716" width="276" height="28" fill="#f1f5f9" stroke="#cbd5e1"/>
  <text x="20" y="734" font-family="Consolas, monospace" font-size="13" fill="#1e293b">19</text>
  <rect x="286" y="716" width="436" height="28" fill="#f1f5f9" stroke="#cbd5e1"/>
  <text x="296" y="734" font-family="Consolas, monospace" font-size="13" fill="#1e293b">Expand Term -&gt; INT Term&apos;</text>
  <rect x="10" y="744" width="276" height="28" fill="#ffffff" stroke="#cbd5e1"/>
  <text x="20" y="762" font-family="Consolas, monospace" font-size="13" fill="#1e293b">20</text>
  <rect x="286" y="744" width="436" height="28" fill="#ffffff" stroke="#cbd5e1"/>
  <text x="296" y="762" font-family="Consolas, monospace" font-size="13" fill="#1e293b">Match terminal &apos;INT&apos;</text>
  <rect x="10" y="772" width="276" height="28" fill="#f1f5f9" stroke="#cbd5e1"/>
  <text x="20" y="790" font-family="Consolas, monospace" font-size="13" fill="#1e293b">21</text>
  <rect x="286" y="772" width="436" height="28" fill="#f1f5f9" stroke="#cbd5e1"/>
  <text x="296" y="790" font-family="Consolas, monospace" font-size="13" fill="#1e293b">Expand Term&apos; -&gt; epsilon</text>
  <rect x="10" y="800" width="276" height="28" fill="#ffffff" stroke="#cbd5e1"/>
  <text x="20" y="818" font-family="Consolas, monospace" font-size="13" fill="#1e293b">22</text>
  <rect x="286" y="800" width="436" height="28" fill="#ffffff" stroke="#cbd5e1"/>
  <text x="296" y="818" font-family="Consolas, monospace" font-size="13" fill="#1e293b">Expand Expr&apos; -&gt; epsilon</text>
  <rect x="10" y="828" width="276" height="28" fill="#f1f5f9" stroke="#cbd5e1"/>
  <text x="20" y="846" font-family="Consolas, monospace" font-size="13" fill="#1e293b">23</text>
  <rect x="286" y="828" width="436" height="28" fill="#f1f5f9" stroke="#cbd5e1"/>
  <text x="296" y="846" font-family="Consolas, monospace" font-size="13" fill="#1e293b">Expand StmtTail -&gt; NEWLINE StmtTail</text>
  <rect x="10" y="856" width="276" height="28" fill="#ffffff" stroke="#cbd5e1"/>
  <text x="20" y="874" font-family="Consolas, monospace" font-size="13" fill="#1e293b">24</text>
  <rect x="286" y="856" width="436" height="28" fill="#ffffff" stroke="#cbd5e1"/>
  <text x="296" y="874" font-family="Consolas, monospace" font-size="13" fill="#1e293b">Match terminal &apos;NEWLINE&apos;</text>
  <rect x="10" y="884" width="276" height="28" fill="#f1f5f9" stroke="#cbd5e1"/>
  <text x="20" y="902" font-family="Consolas, monospace" font-size="13" fill="#1e293b">25</text>
  <rect x="286" y="884" width="436" height="28" fill="#f1f5f9" stroke="#cbd5e1"/>
  <text x="296" y="902" font-family="Consolas, monospace" font-size="13" fill="#1e293b">Expand StmtTail -&gt; PRINT LPAREN Expr RPAREN StmtTail</text>
  <rect x="10" y="912" width="276" height="28" fill="#ffffff" stroke="#cbd5e1"/>
  <text x="20" y="930" font-family="Consolas, monospace" font-size="13" fill="#1e293b">26</text>
  <rect x="286" y="912" width="436" height="28" fill="#ffffff" stroke="#cbd5e1"/>
  <text x="296" y="930" font-family="Consolas, monospace" font-size="13" fill="#1e293b">Match terminal &apos;PRINT&apos;</text>
  <rect x="10" y="940" width="276" height="28" fill="#f1f5f9" stroke="#cbd5e1"/>
  <text x="20" y="958" font-family="Consolas, monospace" font-size="13" fill="#1e293b">27</text>
  <rect x="286" y="940" width="436" height="28" fill="#f1f5f9" stroke="#cbd5e1"/>
  <text x="296" y="958" font-family="Consolas, monospace" font-size="13" fill="#1e293b">Match terminal &apos;LPAREN&apos;</text>
  <rect x="10" y="968" width="276" height="28" fill="#ffffff" stroke="#cbd5e1"/>
  <text x="20" y="986" font-family="Consolas, monospace" font-size="13" fill="#1e293b">28</text>
  <rect x="286" y="968" width="436" height="28" fill="#ffffff" stroke="#cbd5e1"/>
  <text x="296" y="986" font-family="Consolas, monospace" font-size="13" fill="#1e293b">Expand Expr -&gt; Term Expr&apos;</text>
  <rect x="10" y="996" width="276" height="28" fill="#f1f5f9" stroke="#cbd5e1"/>
  <text x="20" y="1014" font-family="Consolas, monospace" font-size="13" fill="#1e293b">29</text>
  <rect x="286" y="996" width="436" height="28" fill="#f1f5f9" stroke="#cbd5e1"/>
  <text x="296" y="1014" font-family="Consolas, monospace" font-size="13" fill="#1e293b">Expand Term -&gt; IDENT Term&apos;</text>
  <rect x="10" y="1024" width="276" height="28" fill="#ffffff" stroke="#cbd5e1"/>
  <text x="20" y="1042" font-family="Consolas, monospace" font-size="13" fill="#1e293b">30</text>
  <rect x="286" y="1024" width="436" height="28" fill="#ffffff" stroke="#cbd5e1"/>
  <text x="296" y="1042" font-family="Consolas, monospace" font-size="13" fill="#1e293b">Match terminal &apos;IDENT&apos;</text>
  <rect x="10" y="1052" width="276" height="28" fill="#f1f5f9" stroke="#cbd5e1"/>
  <text x="20" y="1070" font-family="Consolas, monospace" font-size="13" fill="#1e293b">31</text>
  <rect x="286" y="1052" width="436" height="28" fill="#f1f5f9" stroke="#cbd5e1"/>
  <text x="296" y="1070" font-family="Consolas, monospace" font-size="13" fill="#1e293b">Expand Term&apos; -&gt; epsilon</text>
  <rect x="10" y="1080" width="276" height="28" fill="#ffffff" stroke="#cbd5e1"/>
  <text x="20" y="1098" font-family="Consolas, monospace" font-size="13" fill="#1e293b">32</text>
  <rect x="286" y="1080" width="436" height="28" fill="#ffffff" stroke="#cbd5e1"/>
  <text x="296" y="1098" font-family="Consolas, monospace" font-size="13" fill="#1e293b">Expand Expr&apos; -&gt; PLUS Term Expr&apos;</text>
  <rect x="10" y="1108" width="276" height="28" fill="#f1f5f9" stroke="#cbd5e1"/>
  <text x="20" y="1126" font-family="Consolas, monospace" font-size="13" fill="#1e293b">33</text>
  <rect x="286" y="1108" width="436" height="28" fill="#f1f5f9" stroke="#cbd5e1"/>
  <text x="296" y="1126" font-family="Consolas, monospace" font-size="13" fill="#1e293b">Match terminal &apos;PLUS&apos;</text>
  <rect x="10" y="1136" width="276" height="28" fill="#ffffff" stroke="#cbd5e1"/>
  <text x="20" y="1154" font-family="Consolas, monospace" font-size="13" fill="#1e293b">34</text>
  <rect x="286" y="1136" width="436" height="28" fill="#ffffff" stroke="#cbd5e1"/>
  <text x="296" y="1154" font-family="Consolas, monospace" font-size="13" fill="#1e293b">Expand Term -&gt; IDENT Term&apos;</text>
  <rect x="10" y="1164" width="276" height="28" fill="#f1f5f9" stroke="#cbd5e1"/>
  <text x="20" y="1182" font-family="Consolas, monospace" font-size="13" fill="#1e293b">35</text>
  <rect x="286" y="1164" width="436" height="28" fill="#f1f5f9" stroke="#cbd5e1"/>
  <text x="296" y="1182" font-family="Consolas, monospace" font-size="13" fill="#1e293b">Match terminal &apos;IDENT&apos;</text>
  <rect x="10" y="1192" width="276" height="28" fill="#ffffff" stroke="#cbd5e1"/>
  <text x="20" y="1210" font-family="Consolas, monospace" font-size="13" fill="#1e293b">36</text>
  <rect x="286" y="1192" width="436" height="28" fill="#ffffff" stroke="#cbd5e1"/>
  <text x="296" y="1210" font-family="Consolas, monospace" font-size="13" fill="#1e293b">Expand Term&apos; -&gt; epsilon</text>
  <rect x="10" y="1220" width="276" height="28" fill="#f1f5f9" stroke="#cbd5e1"/>
  <text x="20" y="1238" font-family="Consolas, monospace" font-size="13" fill="#1e293b">37</text>
  <rect x="286" y="1220" width="436" height="28" fill="#f1f5f9" stroke="#cbd5e1"/>
  <text x="296" y="1238" font-family="Consolas, monospace" font-size="13" fill="#1e293b">Expand Expr&apos; -&gt; epsilon</text>
  <rect x="10" y="1248" width="276" height="28" fill="#ffffff" stroke="#cbd5e1"/>
  <text x="20" y="1266" font-family="Consolas, monospace" font-size="13" fill="#1e293b">38</text>
  <rect x="286" y="1248" width="436" height="28" fill="#ffffff" stroke="#cbd5e1"/>
  <text x="296" y="1266" font-family="Consolas, monospace" font-size="13" fill="#1e293b">Match terminal &apos;RPAREN&apos;</text>
  <rect x="10" y="1276" width="276" height="28" fill="#f1f5f9" stroke="#cbd5e1"/>
  <text x="20" y="1294" font-family="Consolas, monospace" font-size="13" fill="#1e293b">39</text>
  <rect x="286" y="1276" width="436" height="28" fill="#f1f5f9" stroke="#cbd5e1"/>
  <text x="296" y="1294" font-family="Consolas, monospace" font-size="13" fill="#1e293b">Expand StmtTail -&gt; NEWLINE StmtTail</text>
  <rect x="10" y="1304" width="276" height="28" fill="#ffffff" stroke="#cbd5e1"/>
  <text x="20" y="1322" font-family="Consolas, monospace" font-size="13" fill="#1e293b">40</text>
  <rect x="286" y="1304" width="436" height="28" fill="#ffffff" stroke="#cbd5e1"/>
  <text x="296" y="1322" font-family="Consolas, monospace" font-size="13" fill="#1e293b">Match terminal &apos;NEWLINE&apos;</text>
  <rect x="10" y="1332" width="276" height="28" fill="#f1f5f9" stroke="#cbd5e1"/>
  <text x="20" y="1350" font-family="Consolas, monospace" font-size="13" fill="#1e293b">41</text>
  <rect x="286" y="1332" width="436" height="28" fill="#f1f5f9" stroke="#cbd5e1"/>
  <text x="296" y="1350" font-family="Consolas, monospace" font-size="13" fill="#1e293b">Expand StmtTail -&gt; epsilon</text>
  <rect x="10" y="1360" width="276" height="28" fill="#ffffff" stroke="#cbd5e1"/>
  <text x="20" y="1378" font-family="Consolas, monospace" font-size="13" fill="#1e293b">42</text>
  <rect x="286" y="1360" width="436" height="28" fill="#ffffff" stroke="#cbd5e1"/>
  <text x="296" y="1378" font-family="Consolas, monospace" font-size="13" fill="#1e293b">ACCEPT</text>
</svg>
